<svg id="Capa_1" data-name="Capa 1" xmlns="http://www.w3.org/2000/svg" viewBox="0 0 795.71 796.79"><defs><style>.cls-1{fill:#fff;}.cls-2{fill:#060505;}.cls-3{fill:#e4231f;}.cls-4{fill:#8bad2d;}.cls-5{fill:#67872d;}.cls-6{fill:#aecb4e;}.cls-7{fill:#7c1f1c;}.cls-8{fill:#e94d50;}.cls-9{fill:#1a0706;}.cls-10{fill:#e94d51;}.cls-11{fill:#1f0908;}.cls-12{fill:#e84c4f;}.cls-13{fill:#e94d4d;}.cls-14{fill:#e84e4e;}.cls-15{fill:#e84e4f;}.cls-16{fill:#e84a49;}.cls-17{fill:#d9474a;}.cls-18{fill:#a92420;}.cls-19{fill:#a51c1c;}.cls-20{fill:#f9eae4;}.cls-21{fill:#e9e4e1;}.cls-22{fill:#f7ddd5;}.cls-23{fill:#f9efe9;}</style></defs><path class="cls-1" d="M644,416.75C656.82,440,661.47,464.1,662.28,489c1.61,49.55-15.38,89.9-57.15,119.24-30.28,21.26-62.86,37.8-96.42,52.8-10.35,4.62-20.62,9.8-28.41,18-28.41,30-65.57,43-103.16,56.5-58.15,20.88-117.91,24-178.64,21.62-61.49-2.4-120.15,9.12-175.4,36.74-1.3.65-2.57,1.38-3.9,2-12.66,5.38-17,2.27-15.25-11.52a178,178,0,0,1,10.4-40.06A532,532,0,0,0,46.11,609c5.66-56.52,20-111.12,55-157.84,30.13-40.24,62-79.08,96.57-115.62,36-38,75.23-71.91,120.31-98.65,41.58-24.67,85.9-38.77,135.15-34.22,21.7,2,40.89,9.69,59,21,10.31,6.48,17.1,4.26,22.84-7.28,1.88-3.76.33-11.44,6.58-10.43,4.63.75,2.26,7.57,3.15,11.62,3.65,16.64,5.6,33.81,19.12,46.54,11.16,10.5,19.46,11.67,31.92,2.53,20.49-15,36.52-34.48,51.67-54.52,25.25-33.42,50.1-67.14,61.59-108.51,5.84-21,7.31-41.17-3.87-61.24-5.69-10.22-7.32-21.89,1.32-31.74S726.54,0,738.52,3.35c15.49,4.32,30.34,10.29,43.91,19,15.42,9.89,19.69,19.12,15.1,36.94a514.41,514.41,0,0,1-30.31,85.14c-31.83,69.75-72.17,134.65-113.29,199.11-1.94,3.05-4.5,5.7-6.78,8.54-9.48,11.78-7.73,26.4,5,35,8.65,5.85,16.78,12.92,27.77,14.64,3.15.49,7,2.21,6.61,6.12-.42,4.45-3.81,6.71-8.41,7C667.22,415.36,656.38,416,644,416.75Z" transform="translate(-3.57 -1.58)"/><path class="cls-2" d="M644,416.75C656.82,440,661.47,464.1,662.28,489c1.61,49.55-15.38,89.9-57.15,119.24-30.28,21.26-62.86,37.8-96.42,52.8-10.35,4.62-20.62,9.8-28.41,18-28.41,30-65.57,43-103.16,56.5-58.15,20.88-117.91,24-178.64,21.62-61.49-2.4-120.15,9.12-175.4,36.74-1.3.65-2.57,1.38-3.9,2-12.66,5.38-17,2.27-15.25-11.52a178,178,0,0,1,10.4-40.06A532,532,0,0,0,46.11,609c5.66-56.52,20-111.12,55-157.84,30.13-40.24,62-79.08,96.57-115.62,36-38,75.23-71.91,120.31-98.65,41.58-24.67,85.9-38.77,135.15-34.22,21.7,2,40.89,9.69,59,21,10.31,6.48,17.1,4.26,22.84-7.28,1.88-3.76.33-11.44,6.58-10.43,4.63.75,2.26,7.57,3.15,11.62,3.65,16.64,5.6,33.81,19.12,46.54,11.16,10.5,19.46,11.67,31.92,2.53,20.49-15,36.52-34.48,51.67-54.52,25.25-33.42,50.1-67.14,61.59-108.51,5.84-21,7.31-41.17-3.87-61.24-5.69-10.22-7.32-21.89,1.32-31.74S726.54,0,738.52,3.35c15.49,4.32,30.34,10.29,43.91,19,15.42,9.89,19.69,19.12,15.1,36.94a514.41,514.41,0,0,1-30.31,85.14c-31.83,69.75-72.17,134.65-113.29,199.11-1.94,3.05-4.5,5.7-6.78,8.54-9.48,11.78-7.73,26.4,5,35,8.65,5.85,16.78,12.92,27.77,14.64,3.15.49,7,2.21,6.61,6.12-.42,4.45-3.81,6.71-8.41,7C667.22,415.36,656.38,416,644,416.75Z" transform="translate(-3.57 -1.58)"/><path class="cls-3" d="M26,769c11.94-25.79,19.53-52.8,25.55-80.6,9.92-45.78,13.07-92.59,22.55-138.33,5.84-28.14,21-52.52,35.81-76.85,26.75-43.89,59.75-83.15,94.21-120.7,31.45-34.26,66.26-65.81,105.7-91.25,30.57-19.71,63.65-34.18,99.42-41.29,32.11-6.39,62,1.71,88.36,20,10.67,7.39,21.18,16.3,22,32.57.43,8.15,4.8,17,8.85,25.18,10.88,22,27.35,41.7,28.75,67.75.23,4.21,2.53,8.41,6.24,9.68,19.46,6.64,32.21,22.07,47,34.84,1.36,1.18,2.52,3.13,4,3.47,14.12,3.11,17.8,15.44,20.75,26.26,10.74,39.34,16.83,79-5.82,116.7-13.41,22.32-33.05,38.31-54.74,52.18-22.83,14.6-48.23,23.85-72.58,35.23-16.56,7.74-31,18.26-44.82,29.6C432,694.27,404.09,709,372.75,719.25,327.55,734,281.24,739.54,234.41,739c-33.44-.42-66.74.18-99.87,3.38-31.74,3.07-63.16,9.21-92.36,23.19-2.51,1.2-4.67,3.13-7,4.72C31.89,771.65,28.36,774.74,26,769Z" transform="translate(-3.57 -1.58)"/><path class="cls-4" d="M770.57,39.63c10.15,6.45,9.13,16.23,6.15,25.3-28.33,86.36-65,168.56-121.67,240.61-.67.85-1.48,1.59-2.22,2.38-3-3.87-3.08-3.93-1.06-7.88q15.38-30.14,32.59-59.28c22.16-37.3,39.62-76.89,57.55-116.26,5.24-11.51,11.59-22.56,15.72-35.76-7.14.83-9.51,5.33-11.53,10.4-3.53,8.84-4.69,18.29-7.38,27.37-8.9,29.91-26.27,54.91-44.56,79.44-5.48,7.35-9.46,15.27-13.15,23.69-12.49,28.5-29.41,54.36-49.69,78A29.91,29.91,0,0,1,611.45,318a57.69,57.69,0,0,0-11.71,2.58c-15.74,5.22-21.08,20.22-9.65,32.2,11,11.59,20.1,24.73,31.71,36.91-1.58-7.54-3.74-14-5-20.75-4.31-23.72,8.65-39.38,24.17-54,1.7-1.6,1.82-1.47,6.16.25-5,8.83-10.08,17.63-15,26.52-15.36,27.83-12,43.26,13.55,62.22-16.16,6.37-23.39,5.32-36-6.06-10.57-9.53-21.62-18.37-33.83-25.67-6-3.59-9.15-8.33-10.66-15.4-6.1-28.47-23.75-51.85-35.39-77.91-4.19-9.39-5.83-18.51-1.83-28.22,1.45.45,2.89,1.3,3.25,2.68,5.19,19.78,21.15,33.7,28.35,52.46,4.86,12.67,9.33,14.55,21.81,8.47,27.29-13.32,48.74-34,68.1-56.9,11.32-13.39,20.15-28.42,28.08-44,5.76-11.34,13.24-21.72,20.17-32.33,21.37-32.7,34.91-68.47,44.4-106,1.34-5.31,3.14-10.44,4.94-15.59C751,48.13,758.09,40.67,770.57,39.63Z" transform="translate(-3.57 -1.58)"/><path class="cls-5" d="M647.16,315.16c-14.46,6.33-29.09,28.75-27.65,43.43.62,6.39-.68,12.91,2.11,19.24,2.41,5.46,3.58,11.45,5.88,19.15-10.34-5.29-15-13.64-20.61-20.66-4.56-5.66-8.38-12-14.29-16.32-9.28-6.79-12.18-16.19-10.91-26.82,1.31-11,10.58-15.76,19.39-16.06,28.51-1,37.68-24.24,51.42-42.26,15-19.72,23.19-43.28,35.22-64.68a128.21,128.21,0,0,1,13.54-19.6c20.59-24.47,32.45-52.9,39.31-83.78,3.9-17.59,7.31-20.9,21-21.45-1.42,8.83-5.88,16.37-9.49,24.16C739.31,137,725.79,164.23,713.59,192c-14.49,33-35.77,62.15-51.17,94.52-3.34,7-9.87,12.75-9.59,21.39A12.32,12.32,0,0,1,647.16,315.16Z" transform="translate(-3.57 -1.58)"/><path class="cls-6" d="M770.57,39.63c-24,9.8-23.91,33.05-29.75,53.06a349,349,0,0,1-44.53,96.23c-19.22,28.92-32.73,61.69-58.56,86.16-16.36,15.51-32.65,31.08-53.13,41.16-16.81,8.27-21.29,6.7-28.15-10a84.16,84.16,0,0,0-13.77-23.13c-7.76-9.13-11.07-21.08-14.68-32.52,1.23-5,3.63-9.28,9.66-14.23-1.94,15.74,2.1,28,10.13,39.62,16.9,24.55,37.07,28.19,61.1,9.53,15.83-12.3,30.53-25.93,42.31-42.18,30.32-41.79,59.78-84.19,76.49-133.73,7.54-22.33,7.92-44.85-1.79-66.91-2.37-5.38-4.94-10.7-.52-16.34,4.57-5.85,10.4-3.55,16-2.67C753.05,25.54,762.29,31.7,770.57,39.63Z" transform="translate(-3.57 -1.58)"/><path class="cls-7" d="M26,769c2.67,3.39,6.12.84,9.19,1.21a10.5,10.5,0,0,1-6.5,4.9c-1.84.58-4.37,1.61-5.42-1C22.35,771.8,24.4,770.39,26,769Z" transform="translate(-3.57 -1.58)"/><path class="cls-8" d="M174.79,600.93c-8.73-51.53,19.37-84,56.74-112.33,24.46-18.55,53.71-30,75.52-52.48,11.12-11.45,18.54-25.25,25.85-38.87,10.72-20,27.72-29,48.63-32.64,8.22-1.43,16.31,0,20.55,8.57s.08,15-6.29,21c-13.42,12.65-28.66,22.52-46.29,27.4-23.86,6.61-41.42,22.87-60.69,36.66-25,17.89-37.82,44.29-50.55,71-12,25.26-26.83,49-42.6,72.1a33.28,33.28,0,0,1-5.14,5.61c-3.17,2.91-6.2,6.86-11.24,5C174,610.11,175.41,604.81,174.79,600.93Z" transform="translate(-3.57 -1.58)"/><path class="cls-9" d="M575.08,476.3c-6.91,28.19-18.72,54.2-39.44,74.65-17.91,17.67-40,29.68-63.11,39.93-22.81,10.11-46.87,13.93-71.07,18.69-24.64,4.84-49.44,10.28-73.13,19.28-1.51,3.27-4.66,4.43-7.64,5.59-20.81,8.08-39.36,19.43-53.83,36.79a11.54,11.54,0,0,1-6.12,4.24q-68.94,45.76-151.51,38.92c33.87-6.77,67.68-13.82,100.71-24.11,3.51-3.6,9-2.72,12.81-5.67,21.82-8.54,38.74-24.36,55.66-39.51,19.52-17.48,42.94-26.1,66.94-33.24,30.22-9,61.45-14.35,92-21.93,34.83-8.64,67.95-23,92.37-50.76a185.7,185.7,0,0,0,39.69-73c1.78-4.09,4-3.91,5.78-.22A10.86,10.86,0,0,1,575.08,476.3Z" transform="translate(-3.57 -1.58)"/><path class="cls-10" d="M260.74,675.47c16-25,40.46-37.74,67.58-46.62,8.75-2.58,16.33,2.42,24.38,4,15.24,3,30.62,5.85,44.8,12.62,3.15,1.5,7.27,3.08,7.35,7.25s-3.37,6.61-6.71,7.85c-32.48,12.05-64.07,26.56-98.17,34.09C281.26,698.77,270.8,688,260.74,675.47Z" transform="translate(-3.57 -1.58)"/><path class="cls-11" d="M457.07,313.37c13.19,1.08,26.41-4.73,39.6.47,9.33,3.67,18.83,6.9,28.23,10.4,2.53.94,4.5,2.65,4.45,5.57-.07,3.77-3.57,2.79-5.67,3.74a8.46,8.46,0,0,1-7.33-.47c-18.21-9.33-38.33-8.37-57.79-10.95-11.38-3-22.47.13-33.28,2.59-45,10.21-81.49,34.72-112.9,67.82-11.86,12.5-23.85,24.86-34.81,38.19-4.14,5-9.61,8.52-15.09,12-30,19.22-51.88,46.93-75.69,72.63-28.45,30.7-52.35,64.66-73.39,100.73-.71,1.22-.94,2.72-1.7,5-5.48-5.41-3.86-9.32-2.22-13.22,11.08-26.35,28.12-49,44.89-71.79a535,535,0,0,1,74.89-81.76c5.87-5.23,12.25-10.33,19.24-13.78,18.51-9.15,28.83-26.64,42.83-40.35,23.88-23.39,47.75-46.75,77.44-63,5.07-2.78,11.17-3.47,15.41-7.83,10.93-6.3,22.36-11.34,35-12.94,8.63-1.1,17-3.23,25.51-5C448.81,310.58,453.36,310.2,457.07,313.37Z" transform="translate(-3.57 -1.58)"/><path class="cls-12" d="M249.1,355.88c-5.5,15.34-13.92,27.9-22,40.45-24.45,38.12-55.34,71.32-82.82,107.13a24.35,24.35,0,0,1-6.5,5.71c-3.17,1.95-6.91,3-10.31.71s-3.53-6.26-2.82-9.88c4.41-22.46,13.26-42,35.7-52,13.91-6.2,21.77-18.25,27.92-30.82,10.51-21.46,28.26-36.47,44.11-53.2C236.23,359.91,241.43,356.91,249.1,355.88Z" transform="translate(-3.57 -1.58)"/><path class="cls-10" d="M427,519.34a7.6,7.6,0,0,1-3.32.36c-27.79-7.35-47.4,10.36-68.92,22.3-4.92,2.73-10.58,7.83-15.75,3.33-5.83-5.09-2-12.15.38-18.11,6.26-15.4,20.23-22.61,33.89-28.83C385.09,493,396.57,487,404.5,477.48c13.8-16.56,31.55-14,49.07-13.15,7.66.39,9.85,7.79,9.05,14C460.27,496.83,451.52,518,427,519.34Z" transform="translate(-3.57 -1.58)"/><path class="cls-13" d="M385.3,290.88c-19.43,3.18-40.14,9.49-60.83,15.77a97.52,97.52,0,0,1-14.89,2.94c-3.17.45-6.87,1.44-8.65-2.36-1.52-3.26,1.27-5.58,3.22-7.46,6-5.75,11.57-11.82,19.57-15.17,25.24-10.58,50.21-21.82,75.59-32,6.19-2.5,13.53-2.63,20.38-2.88,5.41-.2,9.65,3,11.93,8.07,2.38,5.33.78,10.21-3.12,13.89C416.94,282.54,403.76,290.24,385.3,290.88Z" transform="translate(-3.57 -1.58)"/><path class="cls-14" d="M156.22,633.4c9.34-1.46,18.42-2.3,27.93.54,6.8,2,14.34,2.25,21.27-1.43,2.89-1.54,6.58-2.89,9.19-.28s2.48,6.72,1.47,10.3c-6,21.3-16.13,27.22-37.26,21.23-13.3-3.77-26.26-8.54-38.38-15.35-3.13-1.77-7.14-3.21-6.52-7.7.71-5.23,5.39-5.1,9.31-5.64C147.56,634.48,151.89,634,156.22,633.4Z" transform="translate(-3.57 -1.58)"/><path class="cls-15" d="M458.56,322.13c23-3.56,44.79-.2,65.12,11.42,3.76,3.75,1.71,7.39-.6,10.63-2.81,3.94-6.6,1.88-9.81.57C495,337.31,476.79,329.69,458.56,322.13Z" transform="translate(-3.57 -1.58)"/><path class="cls-16" d="M609.16,430.62a174,174,0,0,0-24.74-22.55c-7.09-5.43-16-6.76-23-11.83-2.69-1.94-7.09-3.37-4.92-8.3s6.21-4,10.22-3.07C585.46,389.12,606.69,411.17,609.16,430.62Z" transform="translate(-3.57 -1.58)"/><path class="cls-17" d="M457.07,313.37c-24.69,3.52-49.28,7.51-72.89,16,11.51-12,27-15.41,42.23-19.1,13.5-3.27,27.07-1.71,41.87.37Z" transform="translate(-3.57 -1.58)"/><path class="cls-18" d="M575.08,476.3c-.3-2.78-.58-5.57-.9-8.36-.41-3.63-2-4.1-4.74-1.81-.8-3.47-1-6.73,3.83-7,4.15-.2,4.45,3.2,4.54,6C577.93,469,581.11,473.86,575.08,476.3Z" transform="translate(-3.57 -1.58)"/><path class="cls-19" d="M222.75,684.61c-3,4.75-7.72,5.64-12.81,5.67C211.77,682.87,218.33,686.15,222.75,684.61Z" transform="translate(-3.57 -1.58)"/><path class="cls-20" d="M200.43,555.94c-1.6-14.72.64-28.31,9.14-40.28,1.81-2.55,4.08-5.75,7.89-4.07,4.08,1.8,2.48,5.58,1.73,8.58C215.85,533.55,207.83,544.54,200.43,555.94Z" transform="translate(-3.57 -1.58)"/><path class="cls-21" d="M434.16,513.47c-3.2-.29-8,.47-9.07-2.28-3.7-9.21-11.94-10.32-19.64-12.89-4-1.33-7.36-4.08-6.66-8.67.89-5.87,6.79-8.72,10.95-9.17A62,62,0,0,1,448,488.73c4.47,2.61,2.58,7.24,1.33,10.85C446.78,506.76,442.3,512.19,434.16,513.47Z" transform="translate(-3.57 -1.58)"/><path class="cls-22" d="M347.57,285.39c8.46-8.88,19.1-14.32,31.13-17,5.12-1.13,10.16,2.08,11.23,6.67,1.36,5.82-5.07,4.82-8.32,5.65-10.82,2.79-21.8,5-32.72,7.41Z" transform="translate(-3.57 -1.58)"/><path class="cls-23" d="M186.39,657.65c-10.2-1.13-21.45.05-30.39-7.89-1.47-1.31-4.05-2.53-2.62-5.16,1-1.78,3.06-1.46,4.9-1.45,9.41,0,18.85-.38,28.23.11,5,.27,12.93-1.18,13,6.17C199.48,655.39,192.23,656.36,186.39,657.65Z" transform="translate(-3.57 -1.58)"/></svg>