<svg xmlns="http://www.w3.org/2000/svg" viewBox="0 0 244.28 195.59"><defs><style>.cls-1{fill:#cf1614;}</style></defs><g id="Capa_2" data-name="Capa 2"><g id="Capa_1-2" data-name="Capa 1"><path class="cls-1" d="M7.18,195.59A7,7,0,0,1,1.48,193c-2.28-2.95-1.34-6.6-1-8A51.69,51.69,0,0,1,5,173.67,134.67,134.67,0,0,0,17.4,140.58c4.21-18.2,10.9-31.56,21.07-42.05A350.75,350.75,0,0,1,68.11,71.05c12.19-10,24-17.35,36.11-22.58,9.54-4.13,18.48-6.13,27.35-6.13a57.37,57.37,0,0,1,12.51,1.38,39.46,39.46,0,0,1,15.65,7.52,6.18,6.18,0,0,1,5.8-3.88,7,7,0,0,1,2,.29c1.25.37,5.25,2,4.31,8l0,.17c0,.48.07,1,.11,1.46.29,3.8.54,6.22,2.11,8.12a7.1,7.1,0,0,0,.76.83,6.37,6.37,0,0,0,.78-.38c5-2.77,9.28-6.65,14.13-11.61,6.81-7,14.53-14.85,18.67-24.7,2.13-5.06,2.43-8.57,1-12.1-2.22-5.54-1.18-10.74,2.84-14.3A12.18,12.18,0,0,1,220.33,0a15.86,15.86,0,0,1,6.16,1.35,47.66,47.66,0,0,1,12.23,7.28c5.58,4.67,6.89,9.69,4.26,16.29a141.69,141.69,0,0,1-11.23,22.13c-10.88,17.54-23.62,33.19-36.81,49A18.6,18.6,0,0,1,193,98c-.19.16-.37.33-.55.5a1.41,1.41,0,0,0-.51.8,1.19,1.19,0,0,0,.46.64L193.6,101a10.82,10.82,0,0,0,3.57,2.58c3.86,1.12,6.07,4.55,5.26,8.14a7.36,7.36,0,0,1-7.39,5.75l-.67,0-1.35-.1a51.21,51.21,0,0,1,.45,14.18c-1.46,15.42-8.81,26.72-21.82,33.57-7.83,4.13-16.46,7.52-28,11a18,18,0,0,0-6.2,2.79c-9.32,7.61-20.19,10-30.7,12.33l-.47.1a101.3,101.3,0,0,1-22.14,2.32A164.7,164.7,0,0,1,56.7,191a95.63,95.63,0,0,0-15.84-1.35,86.82,86.82,0,0,0-28.7,4.86l-.25.1c-.38.14-.76.27-1.14.38A13.47,13.47,0,0,1,7.18,195.59Z"/></g></g></svg>