<svg id="Capa_1" data-name="Capa 1" xmlns="http://www.w3.org/2000/svg" viewBox="0 0 752.39 675.65"><defs><style>.cls-1{fill:#fff;}.cls-2{fill:#060505;}.cls-3{fill:#e4231f;}.cls-4{fill:#8bad2d;}.cls-5{fill:#67872d;}.cls-6{fill:#aecb4e;}.cls-7{fill:#7c1f1c;}.cls-8{fill:#e94d50;}.cls-9{fill:#1a0706;}.cls-10{fill:#e94d51;}.cls-11{fill:#1f0908;}.cls-12{fill:#e84c4f;}.cls-13{fill:#e94d4d;}.cls-14{fill:#e84e4e;}.cls-15{fill:#e84e4f;}.cls-16{fill:#e84a49;}.cls-17{fill:#d9474a;}.cls-18{fill:#a92420;}.cls-19{fill:#a51c1c;}.cls-20{fill:#f9eae4;}.cls-21{fill:#e9e4e1;}.cls-22{fill:#f7ddd5;}.cls-23{fill:#f9efe9;}</style></defs><path class="cls-1" d="M166.38,449.73a14.21,14.21,0,0,1-11.6-5.37c-4.63-6-2.7-13.4-2-16.19a105.47,105.47,0,0,1,9.19-23,273.35,273.35,0,0,0,25.16-67.26c8.55-37,22.16-64.15,42.83-85.47a711,711,0,0,1,60.25-55.85C315,176.35,339,161.33,363.62,150.69c19.39-8.38,37.57-12.46,55.58-12.46A117.51,117.51,0,0,1,444.65,141a80.46,80.46,0,0,1,31.81,15.29c3.17-6.79,8.6-7.89,11.79-7.89a14,14,0,0,1,4,.58c2.53.75,10.68,4.14,8.76,16.21l-.05.34c.09,1,.16,2,.23,3,.59,7.73,1.11,12.66,4.29,16.52a16.54,16.54,0,0,0,1.56,1.69,16,16,0,0,0,1.57-.77c10.2-5.65,18.86-13.52,28.73-23.61,13.84-14.15,29.53-30.18,38-50.21,4.33-10.28,4.92-17.41,2-24.6-4.5-11.24-2.4-21.83,5.78-29a24.64,24.64,0,0,1,16.54-6.34,32.44,32.44,0,0,1,12.53,2.75A96.78,96.78,0,0,1,637,69.72c11.33,9.49,14,19.7,8.65,33.1a288.41,288.41,0,0,1-22.82,45c-22.13,35.65-48,67.44-74.81,99.57a39.2,39.2,0,0,1-3.9,3.93l-1.12,1a2.78,2.78,0,0,0-1,1.63,2.49,2.49,0,0,0,.93,1.3c.81.71,1.6,1.43,2.39,2.16,2.67,2.46,5,4.58,7.25,5.24,7.84,2.29,12.33,9.25,10.7,16.56a15,15,0,0,1-15,11.68c-.45,0-.9,0-1.36-.05l-2.75-.19a103.84,103.84,0,0,1,.92,28.83c-3,31.34-17.9,54.3-44.34,68.23-15.93,8.39-33.48,15.28-56.9,22.34-5.4,1.63-9.6,3.21-12.62,5.67-18.92,15.46-41,20.33-62.39,25.05l-1,.22a206.47,206.47,0,0,1-45,4.7c-16.67,0-34.4-1.67-55.79-5.27a195.25,195.25,0,0,0-32.19-2.74,176.58,176.58,0,0,0-58.34,9.89l-.51.19c-.77.29-1.54.56-2.33.78A26.9,26.9,0,0,1,166.38,449.73Z" transform="translate(-23.8 -52.17)"/><path class="cls-1" d="M529.39,278.74c5.23,13.23,6.06,26.41,4.79,39.73-2.52,26.51-14.32,46.85-38.57,59.62-17.58,9.26-36.06,15.85-55,21.55-5.82,1.76-11.65,3.82-16.36,7.66-17.18,14-37.86,18.44-58.81,23.07-32.39,7.15-64.44,4.74-96.63-.67-32.59-5.47-64.63-3.33-95.94,7.61-.74.26-1.46.57-2.21.78-7.11,2-9.22.05-7.34-7.18a95,95,0,0,1,8.28-20.63,285.71,285.71,0,0,0,26.14-69.91c6.87-29.72,18.22-57.82,40-80.33a699.69,699.69,0,0,1,59.32-55c21.74-17.77,45-33.17,70.81-44.34,23.84-10.31,48.41-14.8,74.33-9,11.42,2.54,21.12,7.94,30,15.22,5.05,4.15,8.82,3.43,12.67-2.32,1.25-1.88.95-6.07,4.21-5.11,2.42.71.69,4.18.89,6.4.81,9.12.67,18.4,7,26.1,5.23,6.35,9.57,7.54,16.83,3.52,11.94-6.6,21.8-15.87,31.24-25.51,15.73-16.09,31.27-32.35,40.21-53.61,4.54-10.79,6.7-21.43,2.11-32.88-2.33-5.83-2.41-12.16,2.87-16.82s11.47-4.31,17.62-1.71A86,86,0,0,1,630,78.08c7.54,6.32,9.19,11.52,5.52,20.7a275.77,275.77,0,0,1-21.95,43.29c-21.71,35-47.63,66.81-73.92,98.34a54,54,0,0,1-4.2,4.08c-5.86,5.63-5.92,13.54.25,19,4.21,3.71,8.06,8,13.8,9.69,1.64.48,3.56,1.66,3.1,3.71-.53,2.35-2.49,3.32-5,3.14C541.84,279.58,536,279.19,529.39,278.74Z" transform="translate(-23.8 -52.17)"/><path class="cls-2" d="M529.39,278.74c5.23,13.23,6.06,26.41,4.79,39.73-2.52,26.51-14.32,46.85-38.57,59.62-17.58,9.26-36.06,15.85-55,21.55-5.82,1.76-11.65,3.82-16.36,7.66-17.18,14-37.86,18.44-58.81,23.07-32.39,7.15-64.44,4.74-96.63-.67-32.59-5.47-64.63-3.33-95.94,7.61-.74.26-1.46.57-2.21.78-7.11,2-9.22.05-7.34-7.18a95,95,0,0,1,8.28-20.63,285.71,285.71,0,0,0,26.14-69.91c6.87-29.72,18.22-57.82,40-80.33a699.69,699.69,0,0,1,59.32-55c21.74-17.77,45-33.17,70.81-44.34,23.84-10.31,48.41-14.8,74.33-9,11.42,2.54,21.12,7.94,30,15.22,5.05,4.15,8.82,3.43,12.67-2.32,1.25-1.88.95-6.07,4.21-5.11,2.42.71.69,4.18.89,6.4.81,9.12.67,18.4,7,26.1,5.23,6.35,9.57,7.54,16.83,3.52,11.94-6.6,21.8-15.87,31.24-25.51,15.73-16.09,31.27-32.35,40.21-53.61,4.54-10.79,6.7-21.43,2.11-32.88-2.33-5.83-2.41-12.16,2.87-16.82s11.47-4.31,17.62-1.71A86,86,0,0,1,630,78.08c7.54,6.32,9.19,11.52,5.52,20.7a275.77,275.77,0,0,1-21.95,43.29c-21.71,35-47.63,66.81-73.92,98.34a54,54,0,0,1-4.2,4.08c-5.86,5.63-5.92,13.54.25,19,4.21,3.71,8.06,8,13.8,9.69,1.64.48,3.56,1.66,3.1,3.71-.53,2.35-2.49,3.32-5,3.14C541.84,279.58,536,279.19,529.39,278.74Z" transform="translate(-23.8 -52.17)"/><path class="cls-3" d="M176.14,424.25c8.12-12.92,14-26.79,19.11-41.19,8.4-23.71,13.28-48.43,21.45-72.15,5-14.59,14.75-26.55,24.31-38.5,17.24-21.55,37.5-40.21,58.42-57.86C318.52,198.44,339.21,184,362,173.14c17.62-8.41,36.23-13.86,55.77-15.21,17.54-1.22,32.89,5.13,45.71,16.67,5.18,4.67,10.17,10.13,9.52,18.86-.32,4.37,1.4,9.38,3,14,4.3,12.45,11.72,24.07,10.7,38.05-.17,2.25.77,4.65,2.66,5.57,9.91,4.87,15.65,14,22.66,21.77.64.72,1.13,1.84,1.92,2.12,7.3,2.62,8.42,9.44,9.26,15.41,3,21.68,3.58,43.22-11.06,61.77-8.67,11-20.22,18.15-32.72,24.06-13.16,6.22-27.32,9.41-41.06,13.81-9.35,3-17.77,7.62-25.9,12.72a137.66,137.66,0,0,1-48.17,18.61c-25.09,4.79-50.13,4.58-75,1.07a495.2,495.2,0,0,0-53.43-5c-17.11-.53-34.27.6-50.78,6.06a29.35,29.35,0,0,0-4,2C179.1,426,177,427.45,176.14,424.25Z" transform="translate(-23.8 -52.17)"/><path class="cls-4" d="M622.51,86.48c5,4.13,3.75,9.27,1.55,13.9-21,44.07-46.12,85.35-81.22,119.87-.41.41-.89.74-1.34,1.11-1.32-2.26-1.37-2.3,0-4.26q10.24-15,21.4-29.36c14.35-18.36,26.35-38.26,38.59-58,3.57-5.77,7.71-11.22,10.81-18-3.86-.05-5.43,2.19-6.85,4.75-2.49,4.47-3.75,9.42-5.8,14.07-6.78,15.33-17.74,27.47-29.15,39.29a63.05,63.05,0,0,0-8.63,11.72,167,167,0,0,1-31.78,38.13,16.09,16.09,0,0,1-11.29,4.19,31.39,31.39,0,0,0-6.41.57c-8.75,1.71-12.61,9.33-7.35,16.5,5.09,6.92,9,14.54,14.38,21.82-.32-4.12-1-7.71-1.23-11.39-.68-12.93,7.29-20.39,16.56-27.13,1-.73,1.07-.65,3.26.55-3.26,4.37-6.57,8.71-9.79,13.11-10.08,13.78-9.33,22.23,3,34.07-9,2.29-12.82,1.24-18.76-5.69a118.13,118.13,0,0,0-16.27-16,11.67,11.67,0,0,1-4.64-8.93c-1.31-15.58-9.11-29.24-13.53-43.91-1.6-5.29-1.85-10.26,1-15.16a2.4,2.4,0,0,1,1.55,1.65c1.41,10.89,9,19.39,11.52,29.87,1.72,7.09,4,8.39,11,6,15.45-5.23,28.28-14.77,40.16-25.66,6.94-6.36,12.67-13.77,18-21.54,3.84-5.65,8.53-10.67,13-15.85,13.61-16,23.26-34.1,30.88-53.46,1.08-2.73,2.38-5.34,3.69-8C611.52,89.67,615.79,86.18,622.51,86.48Z" transform="translate(-23.8 -52.17)"/><path class="cls-5" d="M538,224.83c-8.13,2.39-17.46,13.33-17.69,21.25-.1,3.45-1.24,6.83-.18,10.4.9,3.07,1.12,6.34,1.82,10.6-5.15-3.53-7-8.29-9.57-12.41-2.05-3.33-3.65-7-6.5-9.67-4.48-4.25-5.39-9.45-4-15,1.44-5.75,6.71-7.67,11.42-7.23,15.26,1.42,21.73-10.35,30.27-19,9.36-9.48,15.31-21.47,23.18-32a69,69,0,0,1,8.55-9.52c12.63-11.63,20.89-26,26.65-41.95,3.28-9.1,5.32-10.63,12.64-10-1.36,4.6-4.25,8.31-6.71,12.22-8.67,13.8-17.72,27.36-26.11,41.32-10,16.57-23.29,30.67-33.71,46.86-2.25,3.5-6.12,6.12-6.56,10.74A6.64,6.64,0,0,1,538,224.83Z" transform="translate(-23.8 -52.17)"/><path class="cls-6" d="M622.51,86.48c-13.45,3.58-15,16-19.46,26.23a187.56,187.56,0,0,1-30.29,48.23c-12.21,14.09-21.64,30.63-37.07,41.9-9.77,7.15-19.51,14.33-31.11,18.3-9.52,3.26-11.79,2.12-14.31-7.22a45.11,45.11,0,0,0-5.76-13.26c-3.51-5.4-4.46-12-5.6-18.32,1-2.59,2.57-4.7,6.11-6.93-2.11,8.26-.78,15.05,2.69,21.8,7.34,14.23,17.83,17.54,31.9,9.24,9.27-5.47,18-11.73,25.42-19.58,19-20.19,37.59-40.77,49.87-66,5.53-11.39,7.27-23.36,3.6-35.77-.89-3-1.9-6,.84-8.74s5.78-1.18,8.73-.32C614.14,77.78,618.64,81.69,622.51,86.48Z" transform="translate(-23.8 -52.17)"/><path class="cls-7" d="M176.14,424.25c1.19,2,3.21.87,4.82,1.27a5.61,5.61,0,0,1-3.8,2.17c-1,.19-2.44.56-2.82-.92C174,425.47,175.2,424.86,176.14,424.25Z" transform="translate(-23.8 -52.17)"/><path class="cls-8" d="M266.87,344.85c-1.14-28.05,16-43.43,37.88-56,14.3-8.21,30.66-12.33,43.81-22.81,6.7-5.33,11.6-12.18,16.42-18.94,7.07-9.92,16.74-13.56,28.13-14.07,4.48-.2,8.69,1.1,10.36,6s-1,8-4.78,10.77c-8,5.82-16.8,10-26.53,11.44-13.16,1.89-23.62,9.36-34.83,15.39-14.53,7.83-23.17,21-31.77,34.37-8.13,12.63-17.63,24.27-27.6,35.5a18,18,0,0,1-3.13,2.64c-1.88,1.33-3.77,3.23-6.33,1.92S266.93,347,266.87,344.85Z" transform="translate(-23.8 -52.17)"/><path class="cls-9" d="M488.59,305.76c-5.6,14.54-13.66,27.59-26.09,37.07-10.75,8.19-23.34,13.08-36.34,17-12.84,3.83-25.92,4.22-39.14,5.11-13.45.89-27,2.1-40.27,5.28-1,1.64-2.78,2-4.45,2.46-11.64,2.88-22.29,7.66-31.18,15.92a6.2,6.2,0,0,1-3.55,1.85q-39.84,19.68-83.36,10.4c18.5-1.3,37-2.75,55.29-6,2.12-1.68,5-.83,7.21-2.14,12.21-3.06,22.3-10.34,32.34-17.26,11.59-8,24.66-11,37.93-13.14,16.71-2.73,33.71-3.45,50.51-5.4,19.15-2.23,37.77-7.65,52.67-20.74A99.81,99.81,0,0,0,486.29,300c1.22-2.06,2.41-1.81,3.09.27A5.82,5.82,0,0,1,488.59,305.76Z" transform="translate(-23.8 -52.17)"/><path class="cls-10" d="M307.57,390.42c10.23-12.22,24.12-17.35,39.18-20.23,4.83-.78,8.53,2.41,12.71,3.79,7.92,2.61,15.91,5.2,23,9.77,1.57,1,3.66,2.14,3.42,4.36s-2.25,3.3-4.11,3.73c-18.12,4.2-35.94,9.78-54.62,11.46C316.91,404.23,312.07,397.78,307.57,390.42Z" transform="translate(-23.8 -52.17)"/><path class="cls-11" d="M436.85,210.92c6.95,1.47,14.38-.72,21.06,3,4.72,2.59,9.56,5,14.33,7.46a3.15,3.15,0,0,1,2,3.28c-.3,2-2.1,1.24-3.28,1.6a4.54,4.54,0,0,1-3.87-.75c-9.06-6.21-19.85-7.07-30-9.77-5.86-2.36-12-1.47-17.9-.9-24.66,2.38-45.78,12.94-64.77,28.43-7.17,5.86-14.4,11.62-21.15,18-2.55,2.4-5.7,3.89-8.85,5.38-17.29,8.2-30.84,21.46-45.28,33.53-17.24,14.41-32.29,30.88-46,48.66a16.63,16.63,0,0,0-1.25,2.54c-2.55-3.26-1.42-5.23-.28-7.2,7.7-13.28,18.33-24.21,28.81-35.18a287,287,0,0,1,45.47-38.44,47.69,47.69,0,0,1,11.19-6c10.48-3.61,17.17-12.23,25.56-18.57,14.32-10.84,28.63-21.65,45.56-28.3,2.88-1.13,6.18-1.08,8.73-3.12,6.26-2.61,12.69-4.52,19.54-4.51,4.67,0,9.29-.56,13.93-.91C432.63,208.87,435.08,209,436.85,210.92Z" transform="translate(-23.8 -52.17)"/><path class="cls-12" d="M323.16,219.38c-4,7.8-9.32,13.91-14.46,20.05-15.62,18.64-34.34,34.22-51.42,51.42a13.47,13.47,0,0,1-3.85,2.6c-1.83.82-3.89,1.11-5.54-.33s-1.46-3.57-.83-5.46c3.88-11.66,9.93-21.47,22.56-25.27,7.84-2.36,12.84-8.24,17-14.52,7.06-10.72,17.54-17.5,27.12-25.33A14.36,14.36,0,0,1,323.16,219.38Z" transform="translate(-23.8 -52.17)"/><path class="cls-10" d="M406.8,318.59a4,4,0,0,1-1.79,0c-14.3-5.81-26,2.29-38.23,7.18-2.81,1.12-6.18,3.45-8.62.7-2.76-3.11-.26-6.61,1.44-9.62,4.38-7.78,12.32-10.66,20-13,6.64-2.06,13.16-4.48,18-9,8.48-7.88,17.76-5.32,27-3.65,4.06.73,4.72,4.82,3.87,8.09C426,308.86,419.93,319.53,406.8,318.59Z" transform="translate(-23.8 -52.17)"/><path class="cls-13" d="M400.15,194.05c-10.57.36-22,2.31-33.48,4.25a53.07,53.07,0,0,1-8.13.55c-1.72,0-3.76.3-4.45-1.85-.59-1.84,1.06-2.89,2.22-3.76,3.56-2.65,7-5.5,11.46-6.74,14.17-3.91,28.24-8.2,42.45-11.92,3.47-.9,7.39-.47,11.06-.14a6.66,6.66,0,0,1,5.8,5.11,6.25,6.25,0,0,1-2.61,7.19C417.57,191.76,410,195,400.15,194.05Z" transform="translate(-23.8 -52.17)"/><path class="cls-14" d="M254.76,360.88c5.08-.14,10,0,14.84,2.19a14.85,14.85,0,0,0,11.43.69c1.64-.62,3.7-1.09,4.91.48s.87,3.74.09,5.59c-4.64,10.93-10.45,13.39-21.3,8.76a94,94,0,0,1-19.4-10.79c-1.55-1.16-3.58-2.2-3-4.55.74-2.73,3.22-2.35,5.35-2.37Z" transform="translate(-23.8 -52.17)"/><path class="cls-15" d="M437,215.69c12.5-.33,23.87,2.94,33.91,10.52,1.75,2.26.41,4-1,5.62-1.77,1.91-3.65.55-5.27-.36C455.42,226.26,446.24,221,437,215.69Z" transform="translate(-23.8 -52.17)"/><path class="cls-16" d="M509.87,283.75a93.94,93.94,0,0,0-11.64-13.7c-3.41-3.38-8.06-4.69-11.46-7.87-1.3-1.22-3.55-2.28-2-4.76s3.57-1.7,5.65-.94C500.07,260,509.88,273.22,509.87,283.75Z" transform="translate(-23.8 -52.17)"/><path class="cls-17" d="M436.85,210.92c-13.4.19-26.77.64-39.93,3.54,7-5.62,15.42-6.37,23.8-7.3,7.42-.81,14.54.94,22.28,3.06Z" transform="translate(-23.8 -52.17)"/><path class="cls-18" d="M488.59,305.76c0-1.51.08-3,.1-4.52,0-2-.82-2.32-2.4-1.28-.19-1.91-.07-3.66,2.51-3.46,2.23.17,2.15,2,2,3.49C490.61,302.07,492,304.87,488.59,305.76Z" transform="translate(-23.8 -52.17)"/><path class="cls-19" d="M286.71,392.7c-1.93,2.32-4.5,2.47-7.21,2.14C281,391,284.25,393.21,286.71,392.7Z" transform="translate(-23.8 -52.17)"/><path class="cls-20" d="M283.59,322.63c.15-7.95,2.27-15,7.62-20.83,1.14-1.24,2.56-2.79,4.48-1.63s.94,3.14.33,4.68C293.33,311.76,288.31,317.07,283.59,322.63Z" transform="translate(-23.8 -52.17)"/><path class="cls-21" d="M411,316c-1.69-.38-4.28-.29-4.68-1.84-1.34-5.16-5.66-6.31-9.58-8.2-2-1-3.65-2.68-3-5.08.87-3.06,4.21-4.18,6.46-4.13a33.3,33.3,0,0,1,19.79,7c2.2,1.69.88,4,0,5.87C418.18,313.24,415.42,315.82,411,316Z" transform="translate(-23.8 -52.17)"/><path class="cls-22" d="M380.42,188.55a32.12,32.12,0,0,1,17.74-6.93,5.07,5.07,0,0,1,5.53,4.32c.33,3.19-3,2.22-4.82,2.45-5.95.74-11.95,1.16-17.93,1.71C380.77,189.58,380.59,189.06,380.42,188.55Z" transform="translate(-23.8 -52.17)"/><path class="cls-23" d="M269.18,375.86c-5.36-1.3-11.43-1.44-15.65-6.28-.7-.8-2-1.62-1-2.93.63-.88,1.72-.57,2.7-.44,5,.67,10.07,1.08,15,2,2.64.48,7,.25,6.48,4.17C276.31,375.54,272.37,375.57,269.18,375.86Z" transform="translate(-23.8 -52.17)"/><path d="M119.25,533.85l-7.34,6.95A56,56,0,0,0,94.56,529a46.72,46.72,0,0,0-18.38-4A43.76,43.76,0,0,0,55,530.44a39.69,39.69,0,0,0-15.62,14.84,38.3,38.3,0,0,0-5.54,19.8,39.08,39.08,0,0,0,5.73,20.31,40.68,40.68,0,0,0,15.84,15.13A45.59,45.59,0,0,0,77.53,606q14.63,0,24.73-8.24a32.55,32.55,0,0,0,12-21.38H84v-9.14h40.82q-.14,22-13,34.86T77.28,615q-26.28,0-41.6-17.9A47.59,47.59,0,0,1,23.9,565.27a48.79,48.79,0,0,1,6.76-25A48.13,48.13,0,0,1,49.2,522.1a54,54,0,0,1,26.66-6.54,59.22,59.22,0,0,1,22.66,4.35A67.53,67.53,0,0,1,119.25,533.85Z" transform="translate(-23.8 -52.17)"/><path d="M138,542.61h9.21v10.23a32.14,32.14,0,0,1,8.69-9,17.12,17.12,0,0,1,9.53-3,16.41,16.41,0,0,1,8,2.39l-4.7,7.59a12.6,12.6,0,0,0-4.76-1.22,13.05,13.05,0,0,0-8.69,3.7q-4.19,3.71-6.38,11.5-1.68,6-1.67,24.21v23.69H138Z" transform="translate(-23.8 -52.17)"/><path d="M179.91,542.61h9v32.71q0,12,1.29,16.48A18.36,18.36,0,0,0,197.6,602a22.4,22.4,0,0,0,13,3.74,22,22,0,0,0,12.8-3.64,18.62,18.62,0,0,0,7.25-9.56q1.37-4.07,1.36-17.19V542.61h9.2V577q0,14.49-3.38,21.83a25.8,25.8,0,0,1-10.17,11.49q-6.79,4.16-17,4.15t-17.09-4.15a25.54,25.54,0,0,1-10.24-11.59q-3.39-7.44-3.38-22.37Z" transform="translate(-23.8 -52.17)"/><path d="M261.36,542.61h9v12.87a36.19,36.19,0,0,1,12.29-11,32.74,32.74,0,0,1,15.5-3.67,34.57,34.57,0,0,1,25.53,10.76,35.5,35.5,0,0,1,10.62,25.88,36.2,36.2,0,0,1-10.52,26.24A35.44,35.44,0,0,1,283,611a38.8,38.8,0,0,1-12.67-10.37v37.67h-9Zm36.05,6.89a26.47,26.47,0,0,0-19.68,8.16q-8,8.18-8,20.33a28.91,28.91,0,0,0,3.56,14.34,26.06,26.06,0,0,0,10.22,10.1,28.32,28.32,0,0,0,14,3.73,26.54,26.54,0,0,0,13.65-3.76,27.54,27.54,0,0,0,10.18-10.52,28.37,28.37,0,0,0,0-28.3,27.12,27.12,0,0,0-24-14.08Z" transform="translate(-23.8 -52.17)"/><path d="M384.34,540.8a34.71,34.71,0,0,1,26.83,11.72,37.63,37.63,0,0,1-.55,51q-10.23,11-26.28,11t-26.35-11a37.52,37.52,0,0,1-.55-50.9Q368.07,540.8,384.34,540.8Zm0,8.82A26,26,0,0,0,365,557.93,27.79,27.79,0,0,0,356.91,578a28.55,28.55,0,0,0,3.68,14.17,26.15,26.15,0,0,0,10,10.14,28.32,28.32,0,0,0,27.53,0A26.22,26.22,0,0,0,408,592.19,28.55,28.55,0,0,0,411.7,578a27.71,27.71,0,0,0-8.11-20.09A26,26,0,0,0,384.3,549.62Z" transform="translate(-23.8 -52.17)"/><path d="M477.7,518l44.17,94.71H511.64L496.75,581.5H455.94l-14.75,31.16H430.63L475.38,518Zm-1.2,20.12-16.23,34.28h32.38Z" transform="translate(-23.8 -52.17)"/><path d="M535.65,612.66v-97.1h9v39.09a38,38,0,0,1,12.67-10.4,35.49,35.49,0,0,1,40.75,7.34,36.1,36.1,0,0,1,10.52,26.17,35.59,35.59,0,0,1-10.62,26,34.56,34.56,0,0,1-25.53,10.75,32.6,32.6,0,0,1-15.5-3.67,36,36,0,0,1-12.29-11v12.88Zm36.05-6.89a27.14,27.14,0,0,0,24-14.1,28.54,28.54,0,0,0,0-28.39,27.57,27.57,0,0,0-10.18-10.53A26.45,26.45,0,0,0,571.83,549a28.05,28.05,0,0,0-14,3.77,26.22,26.22,0,0,0-10.22,10.14A29,29,0,0,0,544,577.25q0,12.16,8,20.34A26.45,26.45,0,0,0,571.7,605.77Z" transform="translate(-23.8 -52.17)"/><path d="M694.81,542.61v70h-8.88v-12A38.75,38.75,0,0,1,673.21,611a35.55,35.55,0,0,1-40.82-7.31,36.16,36.16,0,0,1-10.53-26.24,35.5,35.5,0,0,1,10.62-25.88,34.67,34.67,0,0,1,25.57-10.76,33.13,33.13,0,0,1,15.61,3.67,35.59,35.59,0,0,1,12.27,11V542.61Zm-36,6.89a27.12,27.12,0,0,0-24,14.08,28.34,28.34,0,0,0,0,28.3A27.63,27.63,0,0,0,645,602.4a26.72,26.72,0,0,0,13.73,3.76,28.2,28.2,0,0,0,14-3.73,26.14,26.14,0,0,0,10.2-10.1A28.92,28.92,0,0,0,686.51,578a27.9,27.9,0,0,0-8-20.33A26.54,26.54,0,0,0,658.79,549.5Z" transform="translate(-23.8 -52.17)"/><path d="M715.09,542.61h9v12.55a37.63,37.63,0,0,1,12-10.78,29.49,29.49,0,0,1,14.3-3.58,24.88,24.88,0,0,1,13.94,4,23.78,23.78,0,0,1,9,10.75q2.9,6.76,2.9,21.05v36.06h-9V579.24q0-12.11-1-16.16-1.56-6.95-6-10.46t-11.59-3.51a22.21,22.21,0,0,0-14.65,5.41,25.34,25.34,0,0,0-8.54,13.39q-1.27,5.22-1.28,19.06v25.69h-9Z" transform="translate(-23.8 -52.17)"/><path d="M23.8,717.59l4.12-2.47q4.33,8,10,8A9.59,9.59,0,0,0,42.53,722a8,8,0,0,0,3.26-3,7.83,7.83,0,0,0,1.12-4.05,8.2,8.2,0,0,0-1.65-4.77Q43,706.9,37,702.35t-7.54-6.62a12.1,12.1,0,0,1-2.57-7.4,11.22,11.22,0,0,1,1.52-5.76,10.78,10.78,0,0,1,4.26-4.1,12.25,12.25,0,0,1,6-1.5,12.66,12.66,0,0,1,6.41,1.7,22,22,0,0,1,6.3,6.23l-4,3a18.9,18.9,0,0,0-4.66-4.77A8,8,0,0,0,38.52,682a6.66,6.66,0,0,0-4.79,1.78,5.83,5.83,0,0,0-1.86,4.38,7.46,7.46,0,0,0,.66,3.06,11.05,11.05,0,0,0,2.4,3.23q1,.92,6.25,4.84,6.28,4.63,8.62,8.26a13.21,13.21,0,0,1,2.34,7.27,12.33,12.33,0,0,1-4,9.15,13.42,13.42,0,0,1-9.72,3.89,14.27,14.27,0,0,1-8-2.36Q26.84,723.12,23.8,717.59Z" transform="translate(-23.8 -52.17)"/><path d="M61.69,678.19h4.84v48.42H61.69Z" transform="translate(-23.8 -52.17)"/><path d="M77.65,678.19H105.4v4.74H82.49V698.1H105.2v4.74H82.49v19H105.2v4.74H77.65Z" transform="translate(-23.8 -52.17)"/><path d="M111.56,726.61l6.93-48.42h.79L139,717.92l19.49-39.73h.78l7,48.42h-4.74L156.67,692l-17.12,34.63h-1.24L121,691.72l-4.76,34.89Z" transform="translate(-23.8 -52.17)"/><path d="M175.68,678.19h9.64q8.3,0,11.2.72a12.44,12.44,0,0,1,6.78,4.2,13.55,13.55,0,0,1,.06,16,12.58,12.58,0,0,1-7.08,4.23q-3.28.8-12.31.79h-3.45v22.52h-4.84Zm4.84,4.74v16.42l8.19.1a21.54,21.54,0,0,0,7.28-.9,7.51,7.51,0,0,0,3.62-2.92,8.19,8.19,0,0,0,1.32-4.52,8,8,0,0,0-1.32-4.45,7.3,7.3,0,0,0-3.47-2.88,21,21,0,0,0-7.06-.85Z" transform="translate(-23.8 -52.17)"/><path d="M215.87,678.19h9.64a58.36,58.36,0,0,1,10.93.66,12.47,12.47,0,0,1,7,4.23,12.1,12.1,0,0,1,2.7,8,12.92,12.92,0,0,1-1.86,6.95,11.59,11.59,0,0,1-5.31,4.53,24.48,24.48,0,0,1-9.55,1.56l17.41,22.49h-6l-17.42-22.49h-2.73v22.49h-4.84Zm4.84,4.74v16.46l8.34.06a20.86,20.86,0,0,0,7.17-.92,7.46,7.46,0,0,0,3.63-2.95,8.12,8.12,0,0,0,1.3-4.52,7.84,7.84,0,0,0-1.32-4.43,7.45,7.45,0,0,0-3.46-2.85,21.08,21.08,0,0,0-7.12-.85Z" transform="translate(-23.8 -52.17)"/><path d="M256.55,678.19H284.3v4.74H261.39V698.1H284.1v4.74H261.39v19H284.1v4.74H256.55Z" transform="translate(-23.8 -52.17)"/><path d="M356.42,687.18l-3.82,2.93a20.81,20.81,0,0,0-7.59-6.24,22.11,22.11,0,0,0-9.72-2.13,21.58,21.58,0,0,0-10.74,2.78A20,20,0,0,0,316.9,692a20.64,20.64,0,0,0-2.71,10.55,19.8,19.8,0,0,0,6.07,14.78,21.05,21.05,0,0,0,15.32,5.92,21.52,21.52,0,0,0,17-8l3.82,2.9a24.51,24.51,0,0,1-9,7.13,28.31,28.31,0,0,1-12.09,2.52q-12.71,0-20.05-8.46a25.54,25.54,0,0,1-6.15-17.25,24,24,0,0,1,7.45-17.89Q324,677,335.22,677a27.5,27.5,0,0,1,12.24,2.68A23.76,23.76,0,0,1,356.42,687.18Z" transform="translate(-23.8 -52.17)"/><path d="M389.19,677a25.14,25.14,0,0,1,18.41,7.34,25.46,25.46,0,0,1-18,43.52,24.77,24.77,0,0,1-18.18-7.38A24.23,24.23,0,0,1,364,702.61a25.78,25.78,0,0,1,3.37-12.93A24.92,24.92,0,0,1,389.19,677Zm.21,4.71a19.93,19.93,0,0,0-10.19,2.8,20.23,20.23,0,0,0-7.52,7.54A21,21,0,0,0,369,702.6a20.37,20.37,0,0,0,20.41,20.52,20.7,20.7,0,0,0,10.43-2.73,19.64,19.64,0,0,0,7.49-7.48A21,21,0,0,0,410,702.37a20.52,20.52,0,0,0-2.69-10.43,20.09,20.09,0,0,0-7.57-7.46A20.42,20.42,0,0,0,389.4,681.68Z" transform="translate(-23.8 -52.17)"/><path d="M424.75,726.61V678.19h1.06L458,715.3V678.19h4.77v48.42h-1.08l-32-36.67v36.67Z" transform="translate(-23.8 -52.17)"/><path d="M474.62,678.19h27.75v4.74H479.46V698.1h22.71v4.74H479.46v19h22.71v4.74H474.62Z" transform="translate(-23.8 -52.17)"/><path d="M555.82,687.18,552,690.11a20.81,20.81,0,0,0-7.59-6.24,22.19,22.19,0,0,0-9.73-2.13A21.54,21.54,0,0,0,524,684.52a20,20,0,0,0-7.65,7.48,20.65,20.65,0,0,0-2.72,10.55,19.81,19.81,0,0,0,6.08,14.78A21,21,0,0,0,535,723.25a21.53,21.53,0,0,0,17-8l3.81,2.9a24.4,24.4,0,0,1-9,7.13,28.33,28.33,0,0,1-12.1,2.52q-12.71,0-20-8.46a25.49,25.49,0,0,1-6.16-17.25A24,24,0,0,1,516,684.23q7.45-7.26,18.68-7.26a27.5,27.5,0,0,1,12.24,2.68A23.73,23.73,0,0,1,555.82,687.18Z" transform="translate(-23.8 -52.17)"/><path d="M560.73,682.93v-4.74h26.53v4.74h-10.8v43.68h-4.94V682.93Z" transform="translate(-23.8 -52.17)"/><path d="M614,678.19l22.58,48.42h-5.23l-7.61-15.93H602.9l-7.55,15.93H590l22.87-48.42Zm-.61,10.29L605.11,706h16.56Z" transform="translate(-23.8 -52.17)"/><path d="M644.1,726.61V678.19h10q10.86,0,15.77,1.74a21.14,21.14,0,0,1,11,8.56,26,26,0,0,1,4,14.52,25.41,25.41,0,0,1-3.15,12.8,20.11,20.11,0,0,1-8.16,8.17q-5,2.63-14.07,2.63Zm4.65-4.58h5.59q10,0,13.92-1.25a16,16,0,0,0,8.59-6.39,19.66,19.66,0,0,0,3.13-11.3,20.71,20.71,0,0,0-3.39-12,17.09,17.09,0,0,0-9.45-6.81c-3-.92-8-1.38-15-1.38h-3.42Z" transform="translate(-23.8 -52.17)"/><path d="M717.33,677a25.14,25.14,0,0,1,18.41,7.34,25.46,25.46,0,0,1-18,43.52,24.77,24.77,0,0,1-18.18-7.38,24.23,24.23,0,0,1-7.41-17.84,25.78,25.78,0,0,1,3.37-12.93A24.92,24.92,0,0,1,717.33,677Zm.21,4.71a19.91,19.91,0,0,0-10.19,2.8,20.23,20.23,0,0,0-7.52,7.54,21,21,0,0,0-2.7,10.58,20.37,20.37,0,0,0,20.41,20.52A20.72,20.72,0,0,0,728,720.39a19.71,19.71,0,0,0,7.49-7.48,21,21,0,0,0,2.69-10.54,20.52,20.52,0,0,0-2.69-10.43,20.16,20.16,0,0,0-7.57-7.46A20.42,20.42,0,0,0,717.54,681.68Z" transform="translate(-23.8 -52.17)"/><path d="M747.86,717.59l4.11-2.47q4.35,8,10,8a9.56,9.56,0,0,0,4.57-1.14,7.94,7.94,0,0,0,3.26-3,7.83,7.83,0,0,0,1.12-4.05,8.26,8.26,0,0,0-1.64-4.77q-2.28-3.23-8.3-7.77t-7.54-6.62a12.1,12.1,0,0,1-2.57-7.4,11.22,11.22,0,0,1,1.52-5.76,10.78,10.78,0,0,1,4.26-4.1,12.32,12.32,0,0,1,6-1.5,12.65,12.65,0,0,1,6.4,1.7,21.88,21.88,0,0,1,6.3,6.23l-4,3a19.07,19.07,0,0,0-4.65-4.77,8.05,8.05,0,0,0-4.2-1.16,6.68,6.68,0,0,0-4.79,1.78,5.83,5.83,0,0,0-1.86,4.38,7.46,7.46,0,0,0,.66,3.06,11.43,11.43,0,0,0,2.4,3.23q1,.92,6.25,4.84,6.28,4.63,8.63,8.26a13.29,13.29,0,0,1,2.34,7.27,12.37,12.37,0,0,1-4,9.15,13.46,13.46,0,0,1-9.73,3.89,14.27,14.27,0,0,1-8-2.36A21.42,21.42,0,0,1,747.86,717.59Z" transform="translate(-23.8 -52.17)"/></svg>