<svg xmlns="http://www.w3.org/2000/svg" viewBox="0 0 370.16 332.41"><defs><style>.cls-1{fill:#fff;}.cls-2{fill:#060505;}.cls-3{fill:#e4231f;}.cls-4{fill:#8bad2d;}.cls-5{fill:#67872d;}.cls-6{fill:#aecb4e;}.cls-7{fill:#7c1f1c;}.cls-8{fill:#e94d50;}.cls-9{fill:#1a0706;}.cls-10{fill:#e94d51;}.cls-11{fill:#1f0908;}.cls-12{fill:#e84c4f;}.cls-13{fill:#e94d4d;}.cls-14{fill:#e84e4e;}.cls-15{fill:#e84e4f;}.cls-16{fill:#e84a49;}.cls-17{fill:#d9474a;}.cls-18{fill:#a92420;}.cls-19{fill:#a51c1c;}.cls-20{fill:#f9eae4;}.cls-21{fill:#e9e4e1;}.cls-22{fill:#f7ddd5;}.cls-23{fill:#f9efe9;}</style></defs><g id="Capa_2" data-name="Capa 2"><g id="Capa_1-2" data-name="Capa 1"><path class="cls-1" d="M70.14,195.59a7,7,0,0,1-5.7-2.64c-2.28-2.95-1.33-6.6-1-8A52.25,52.25,0,0,1,68,173.67a134.24,134.24,0,0,0,12.37-33.09c4.21-18.2,10.91-31.56,21.07-42.05a349.27,349.27,0,0,1,29.65-27.48c12.19-10,24-17.35,36.1-22.58,9.54-4.13,18.49-6.13,27.35-6.13a57.52,57.52,0,0,1,12.52,1.38,39.59,39.59,0,0,1,15.65,7.52,6.17,6.17,0,0,1,5.8-3.88,7,7,0,0,1,1.95.29c1.25.37,5.26,2,4.31,8l0,.17c0,.48.08,1,.11,1.46.29,3.8.55,6.22,2.11,8.12a6.94,6.94,0,0,0,.77.83,7.27,7.27,0,0,0,.77-.38c5-2.77,9.28-6.65,14.13-11.61,6.81-7,14.53-14.85,18.68-24.7,2.13-5.06,2.42-8.57,1-12.1-2.21-5.54-1.18-10.74,2.84-14.3A12.18,12.18,0,0,1,283.29,0a15.82,15.82,0,0,1,6.16,1.35,47.66,47.66,0,0,1,12.23,7.28c5.58,4.67,6.89,9.69,4.26,16.29a141.69,141.69,0,0,1-11.23,22.13c-10.88,17.54-23.62,33.19-36.8,49A19.64,19.64,0,0,1,256,98l-.55.5a1.41,1.41,0,0,0-.51.8,1.19,1.19,0,0,0,.46.64c.4.35.79.71,1.18,1.07a10.8,10.8,0,0,0,3.56,2.58c3.86,1.12,6.07,4.55,5.27,8.14a7.37,7.37,0,0,1-7.4,5.75l-.67,0-1.35-.1a51.19,51.19,0,0,1,.46,14.18c-1.47,15.42-8.81,26.72-21.82,33.57-7.84,4.13-16.47,7.52-28,11a18,18,0,0,0-6.2,2.79c-9.31,7.61-20.18,10-30.7,12.33l-.47.1a101.3,101.3,0,0,1-22.14,2.32A164.8,164.8,0,0,1,119.66,191a95.51,95.51,0,0,0-15.83-1.35,86.87,86.87,0,0,0-28.71,4.86l-.25.1c-.38.14-.75.27-1.14.38A13.41,13.41,0,0,1,70.14,195.59Z"/><path class="cls-1" d="M248.74,111.46A41.35,41.35,0,0,1,251.1,131c-1.24,13-7,23.05-19,29.34a151.74,151.74,0,0,1-27,10.6,22.55,22.55,0,0,0-8.05,3.77c-8.46,6.9-18.63,9.07-28.94,11.34-15.93,3.52-31.7,2.34-47.54-.32a93.73,93.73,0,0,0-47.2,3.74c-.36.13-.72.28-1.08.38-3.5,1-4.54,0-3.62-3.53a47.47,47.47,0,0,1,4.08-10.15,140.67,140.67,0,0,0,12.86-34.39c3.38-14.62,9-28.45,19.69-39.52a344.16,344.16,0,0,1,29.19-27.06c10.7-8.74,22.13-16.32,34.84-21.82C181,48.32,193.13,46.11,205.88,49a35,35,0,0,1,14.75,7.49c2.48,2,4.34,1.68,6.23-1.14.62-.93.47-3,2.07-2.52,1.19.35.34,2.06.44,3.15.4,4.49.33,9,3.45,12.84,2.57,3.13,4.71,3.71,8.28,1.74C247,67.26,251.83,62.71,256.47,58c7.74-7.91,15.38-15.92,19.78-26.37,2.23-5.31,3.3-10.54,1-16.18-1.15-2.87-1.18-6,1.41-8.27s5.64-2.12,8.67-.85a42.6,42.6,0,0,1,10.87,6.45c3.71,3.11,4.52,5.67,2.72,10.19a137,137,0,0,1-10.8,21.3c-10.68,17.21-23.43,32.87-36.37,48.38a26.26,26.26,0,0,1-2.07,2c-2.88,2.77-2.91,6.66.13,9.33,2.07,1.82,4,4,6.79,4.77.8.23,1.75.81,1.52,1.82a2.08,2.08,0,0,1-2.43,1.55Z"/><path class="cls-2" d="M248.74,111.46A41.35,41.35,0,0,1,251.1,131c-1.24,13-7,23.05-19,29.34a151.74,151.74,0,0,1-27,10.6,22.55,22.55,0,0,0-8.05,3.77c-8.46,6.9-18.63,9.07-28.94,11.34-15.93,3.52-31.7,2.34-47.54-.32a93.73,93.73,0,0,0-47.2,3.74c-.36.13-.72.28-1.08.38-3.5,1-4.54,0-3.62-3.53a47.47,47.47,0,0,1,4.08-10.15,140.67,140.67,0,0,0,12.86-34.39c3.38-14.62,9-28.45,19.69-39.52a344.16,344.16,0,0,1,29.19-27.06c10.7-8.74,22.13-16.32,34.84-21.82C181,48.32,193.13,46.11,205.88,49a35,35,0,0,1,14.75,7.49c2.48,2,4.34,1.68,6.23-1.14.62-.93.47-3,2.07-2.52,1.19.35.34,2.06.44,3.15.4,4.49.33,9,3.45,12.84,2.57,3.13,4.71,3.71,8.28,1.74C247,67.26,251.83,62.71,256.47,58c7.74-7.91,15.38-15.92,19.78-26.37,2.23-5.31,3.3-10.54,1-16.18-1.15-2.87-1.18-6,1.41-8.27s5.64-2.12,8.67-.85a42.6,42.6,0,0,1,10.87,6.45c3.71,3.11,4.52,5.67,2.72,10.19a137,137,0,0,1-10.8,21.3c-10.68,17.21-23.43,32.87-36.37,48.38a26.26,26.26,0,0,1-2.07,2c-2.88,2.77-2.91,6.66.13,9.33,2.07,1.82,4,4,6.79,4.77.8.23,1.75.81,1.52,1.82a2.08,2.08,0,0,1-2.43,1.55Z"/><path class="cls-3" d="M75,183.06a101.44,101.44,0,0,0,9.4-20.27c4.13-11.67,6.53-23.83,10.55-35.5,2.47-7.18,7.26-13.06,12-18.94,8.49-10.6,18.45-19.78,28.74-28.47a145,145,0,0,1,30.77-20.37A75.43,75.43,0,0,1,193.8,52c8.64-.6,16.19,2.53,22.49,8.2,2.55,2.3,5,5,4.69,9.28-.16,2.15.68,4.61,1.47,6.9,2.12,6.12,5.77,11.84,5.26,18.71A2.82,2.82,0,0,0,229,97.87c4.88,2.39,7.71,6.86,11.15,10.71.32.35.56.9,1,1,3.59,1.29,4.14,4.65,4.55,7.58,1.5,10.67,1.76,21.26-5.44,30.39-4.26,5.4-9.95,8.93-16.1,11.84-6.47,3.06-13.44,4.63-20.2,6.8a56.26,56.26,0,0,0-12.74,6.25,67.64,67.64,0,0,1-23.7,9.16,111.86,111.86,0,0,1-36.91.52,242.38,242.38,0,0,0-26.29-2.46c-8.42-.26-16.86.29-25,3a14.24,14.24,0,0,0-2,1C76.4,183.94,75.38,184.63,75,183.06Z"/><path class="cls-4" d="M294.55,16.88c2.45,2,1.85,4.56.77,6.83-10.33,21.69-22.69,42-40,59-.21.2-.44.36-.67.55-.64-1.11-.67-1.13,0-2.1q5-7.38,10.53-14.45c7.06-9,13-18.82,19-28.53a78.51,78.51,0,0,0,5.32-8.85c-1.9,0-2.67,1.08-3.37,2.34-1.22,2.2-1.84,4.64-2.85,6.93C280,46.12,274.56,52.09,269,57.9a31.3,31.3,0,0,0-4.24,5.77,82.07,82.07,0,0,1-15.64,18.76,7.91,7.91,0,0,1-5.56,2.06,15.13,15.13,0,0,0-3.15.28c-4.3.84-6.21,4.59-3.61,8.12s4.44,7.15,7.07,10.73c-.16-2-.51-3.79-.61-5.6-.33-6.36,3.59-10,8.15-13.35.5-.36.53-.32,1.61.27-1.61,2.15-3.24,4.29-4.82,6.45-5,6.78-4.59,10.94,1.46,16.76-4.45,1.13-6.31.61-9.23-2.79a57.85,57.85,0,0,0-8-7.87,5.74,5.74,0,0,1-2.28-4.39c-.64-7.66-4.48-14.38-6.65-21.6-.79-2.61-.91-5,.46-7.46a1.16,1.16,0,0,1,.76.81c.7,5.36,4.42,9.54,5.67,14.7.85,3.48,2,4.13,5.43,3,7.6-2.57,13.92-7.27,19.76-12.63a59.53,59.53,0,0,0,8.84-10.6,93.22,93.22,0,0,1,6.37-7.79c6.7-7.85,11.45-16.78,15.19-26.3.53-1.35,1.17-2.63,1.82-3.92C289.15,18.45,291.25,16.73,294.55,16.88Z"/><path class="cls-5" d="M253,84.94c-4,1.18-8.59,6.56-8.71,10.46,0,1.69-.61,3.36-.09,5.11a44.58,44.58,0,0,1,.9,5.22c-2.53-1.74-3.46-4.08-4.71-6.11-1-1.63-1.79-3.42-3.2-4.75a7.15,7.15,0,0,1-2-7.4c.71-2.83,3.3-3.77,5.62-3.56,7.51.7,10.69-5.09,14.9-9.35,4.6-4.66,7.53-10.56,11.4-15.77a35.18,35.18,0,0,1,4.2-4.68c6.22-5.72,10.28-12.77,13.12-20.64,1.61-4.48,2.61-5.23,6.22-4.91-.68,2.26-2.1,4.09-3.3,6-4.27,6.79-8.72,13.46-12.85,20.33C269.6,63.05,263.05,70,257.93,78c-1.11,1.72-3,3-3.24,5.29A3.25,3.25,0,0,1,253,84.94Z"/><path class="cls-6" d="M294.55,16.88c-6.62,1.76-7.37,7.85-9.57,12.9a92.21,92.21,0,0,1-14.9,23.73c-6,6.93-10.65,15.07-18.24,20.62-4.81,3.51-9.6,7-15.31,9-4.68,1.6-5.8,1-7-3.56a22.18,22.18,0,0,0-2.83-6.52c-1.73-2.65-2.19-5.89-2.76-9a6.65,6.65,0,0,1,3-3.41,14.26,14.26,0,0,0,1.33,10.72c3.6,7,8.77,8.64,15.69,4.55a55.82,55.82,0,0,0,12.5-9.63c9.35-9.94,18.49-20.06,24.54-32.48a23.74,23.74,0,0,0,1.77-17.6c-.44-1.49-.93-3,.41-4.3s2.85-.58,4.3-.16A14.28,14.28,0,0,1,294.55,16.88Z"/><path class="cls-7" d="M75,183.06c.58,1,1.57.42,2.37.62a2.77,2.77,0,0,1-1.87,1.07c-.5.09-1.2.27-1.39-.45S74.48,183.35,75,183.06Z"/><path class="cls-8" d="M119.58,144c-.56-13.8,7.9-21.36,18.64-27.54,7-4,15.09-6.06,21.55-11.22,3.3-2.62,5.71-6,8.08-9.31,3.48-4.88,8.24-6.68,13.84-6.93,2.2-.1,4.28.54,5.1,2.94s-.48,3.94-2.35,5.3a29.39,29.39,0,0,1-13.05,5.63c-6.48.93-11.63,4.6-17.14,7.57-7.15,3.85-11.4,10.34-15.63,16.91A143,143,0,0,1,125,144.8a8.35,8.35,0,0,1-1.54,1.3c-.93.66-1.85,1.59-3.11,1S119.61,145,119.58,144Z"/><path class="cls-9" d="M228.67,124.76c-2.76,7.15-6.73,13.57-12.84,18.24-5.29,4-11.48,6.43-17.88,8.34s-12.75,2.08-19.25,2.52a117.48,117.48,0,0,0-19.81,2.6,3.22,3.22,0,0,1-2.19,1.21,33.94,33.94,0,0,0-15.35,7.83,3,3,0,0,1-1.74.91,61.52,61.52,0,0,1-41,5.12,258.59,258.59,0,0,0,27.21-2.95c1-.82,2.45-.4,3.54-1.05,6-1.51,11-5.09,15.92-8.49,5.7-3.92,12.13-5.4,18.65-6.46,8.23-1.35,16.59-1.7,24.86-2.66,9.42-1.1,18.58-3.77,25.91-10.21a49,49,0,0,0,12.85-17.81c.6-1,1.19-.89,1.52.14A2.87,2.87,0,0,1,228.67,124.76Z"/><path class="cls-10" d="M139.61,166.41c5-6,11.87-8.54,19.27-9.95,2.38-.39,4.2,1.18,6.26,1.86,3.89,1.29,7.83,2.56,11.31,4.81.78.5,1.81,1.05,1.69,2.15a2.35,2.35,0,0,1-2,1.83c-8.92,2.07-17.69,4.81-26.88,5.64C144.2,173.2,141.82,170,139.61,166.41Z"/><path class="cls-11" d="M203.21,78.1c3.42.72,7.08-.35,10.36,1.45,2.32,1.28,4.7,2.44,7.05,3.67a1.54,1.54,0,0,1,1,1.61c-.15,1-1,.61-1.61.79a2.25,2.25,0,0,1-1.91-.37c-4.46-3-9.76-3.48-14.77-4.8-2.89-1.17-5.9-.72-8.81-.44-12.13,1.16-22.52,6.36-31.87,14-3.53,2.88-7.08,5.72-10.4,8.84a16.58,16.58,0,0,1-4.36,2.65c-8.51,4-15.17,10.56-22.27,16.49A150.34,150.34,0,0,0,103,145.91a9.8,9.8,0,0,0-.61,1.25,2.64,2.64,0,0,1-.14-3.54c3.79-6.53,9-11.91,14.18-17.31a140.42,140.42,0,0,1,22.37-18.91,23.61,23.61,0,0,1,5.5-3c5.16-1.77,8.45-6,12.58-9.13,7-5.33,14.08-10.65,22.41-13.92,1.42-.56,3-.54,4.3-1.54a25,25,0,0,1,9.61-2.22c2.3,0,4.57-.27,6.85-.45A3.63,3.63,0,0,1,203.21,78.1Z"/><path class="cls-12" d="M147.28,82.26a52.56,52.56,0,0,1-7.12,9.87c-7.68,9.17-16.89,16.83-25.29,25.29a6.3,6.3,0,0,1-1.9,1.28,2.43,2.43,0,0,1-2.73-.16,2.32,2.32,0,0,1-.4-2.68c1.9-5.74,4.88-10.57,11.1-12.44,3.85-1.16,6.32-4,8.35-7.14,3.47-5.27,8.63-8.61,13.34-12.46A7.07,7.07,0,0,1,147.28,82.26Z"/><path class="cls-10" d="M188.43,131.07a1.87,1.87,0,0,1-.88,0c-7-2.86-12.77,1.13-18.81,3.54-1.39.55-3,1.69-4.24.34-1.36-1.53-.13-3.25.7-4.73,2.16-3.83,6.06-5.25,9.85-6.42,3.27-1,6.48-2.2,8.88-4.44,4.17-3.87,8.73-2.62,13.3-1.8,2,.36,2.32,2.38,1.9,4C197.89,126.29,194.89,131.53,188.43,131.07Z"/><path class="cls-13" d="M185.15,69.8a129.74,129.74,0,0,0-16.47,2.09,25.61,25.61,0,0,1-4,.27c-.84,0-1.85.15-2.19-.91-.29-.9.53-1.42,1.1-1.85,1.75-1.3,3.43-2.71,5.64-3.32,7-1.92,13.89-4,20.88-5.86a16.52,16.52,0,0,1,5.44-.07,3.27,3.27,0,0,1,2.85,2.52,3.05,3.05,0,0,1-1.28,3.53A16.76,16.76,0,0,1,185.15,69.8Z"/><path class="cls-14" d="M113.63,151.88a16.12,16.12,0,0,1,7.3,1.08,7.27,7.27,0,0,0,5.62.33c.81-.3,1.82-.53,2.42.24a2.73,2.73,0,0,1,0,2.75c-2.28,5.38-5.14,6.59-10.48,4.31a45.92,45.92,0,0,1-9.54-5.31c-.76-.57-1.77-1.08-1.45-2.24.36-1.34,1.58-1.15,2.63-1.16Z"/><path class="cls-15" d="M203.31,80.45A25.68,25.68,0,0,1,220,85.62c.86,1.11.2,2-.51,2.77-.87.94-1.8.27-2.6-.18C212.34,85.64,207.83,83,203.31,80.45Z"/><path class="cls-16" d="M239.13,113.93a45.69,45.69,0,0,0-5.72-6.74c-1.68-1.66-4-2.31-5.64-3.87-.64-.6-1.75-1.12-1-2.34s1.76-.84,2.78-.47C234.32,102.26,239.14,108.75,239.13,113.93Z"/><path class="cls-17" d="M203.21,78.1c-6.59.09-13.17.31-19.64,1.74,3.42-2.76,7.58-3.13,11.71-3.59,3.64-.4,7.15.46,11,1.5Z"/><path class="cls-18" d="M228.67,124.76c0-.74,0-1.48,0-2.22,0-1-.4-1.15-1.18-.64-.09-.93,0-1.79,1.24-1.7,1.1.09,1.06,1,1,1.72C229.66,122.94,230.33,124.32,228.67,124.76Z"/><path class="cls-19" d="M129.34,167.53a3.58,3.58,0,0,1-3.54,1.05C126.52,166.71,128.13,167.79,129.34,167.53Z"/><path class="cls-20" d="M127.81,133.06a14.91,14.91,0,0,1,3.75-10.25c.56-.61,1.26-1.37,2.2-.8s.46,1.54.17,2.3C132.6,127.71,130.13,130.32,127.81,133.06Z"/><path class="cls-21" d="M190.49,129.77c-.83-.18-2.1-.14-2.3-.9-.66-2.54-2.78-3.11-4.71-4-1-.48-1.8-1.31-1.46-2.49a3.18,3.18,0,0,1,3.18-2,16.4,16.4,0,0,1,9.73,3.45c1.09.83.44,2,0,2.89A5,5,0,0,1,190.49,129.77Z"/><path class="cls-22" d="M175.45,67.09a15.79,15.79,0,0,1,8.73-3.4,2.49,2.49,0,0,1,2.72,2.12c.16,1.57-1.49,1.09-2.37,1.2-2.93.37-5.88.58-8.83.85Z"/><path class="cls-23" d="M120.72,159.25c-2.64-.64-5.62-.71-7.7-3.09-.34-.4-1-.8-.51-1.44.31-.44.85-.28,1.33-.22,2.46.33,5,.53,7.39,1,1.3.23,3.43.12,3.19,2.05C124.23,159.09,122.29,159.1,120.72,159.25Z"/><path class="cls-1" d="M47,237l-3.61,3.42a27.49,27.49,0,0,0-8.54-5.82,23,23,0,0,0-9-2,21.49,21.49,0,0,0-10.44,2.7,19.45,19.45,0,0,0-7.68,7.3,18.81,18.81,0,0,0-2.73,9.74,19.21,19.21,0,0,0,2.82,10,20,20,0,0,0,7.8,7.45,22.43,22.43,0,0,0,10.89,2.71,18.66,18.66,0,0,0,12.17-4.06,16,16,0,0,0,5.89-10.52H29.63v-4.49H49.72q-.07,10.8-6.42,17.15t-17,6.35q-12.93,0-20.47-8.81A23.41,23.41,0,0,1,.05,252.43a24,24,0,0,1,3.32-12.32,23.71,23.71,0,0,1,9.13-8.92A26.58,26.58,0,0,1,25.61,228a29.06,29.06,0,0,1,11.15,2.14A33.23,33.23,0,0,1,47,237Z"/><path class="cls-1" d="M56.18,241.28h4.53v5A15.9,15.9,0,0,1,65,241.87a8.47,8.47,0,0,1,4.69-1.47,8.08,8.08,0,0,1,3.93,1.17l-2.31,3.74a6.23,6.23,0,0,0-2.35-.61,6.37,6.37,0,0,0-4.27,1.83,11.47,11.47,0,0,0-3.14,5.65q-.83,2.94-.82,11.91v11.66H56.18Z"/><path class="cls-1" d="M76.8,241.28h4.44v16.1a34.64,34.64,0,0,0,.63,8.11,9,9,0,0,0,3.63,5,11,11,0,0,0,6.39,1.84,10.8,10.8,0,0,0,6.3-1.79,9.11,9.11,0,0,0,3.57-4.71q.67-2,.67-8.45v-16.1H107V258.2q0,7.13-1.67,10.74a12.65,12.65,0,0,1-5,5.65,15.84,15.84,0,0,1-8.38,2,16,16,0,0,1-8.41-2,12.59,12.59,0,0,1-5-5.7q-1.67-3.66-1.66-11Z"/><path class="cls-1" d="M116.87,241.28h4.44v6.34a17.81,17.81,0,0,1,6-5.42,16.12,16.12,0,0,1,7.63-1.8,17,17,0,0,1,12.56,5.29,17.46,17.46,0,0,1,5.22,12.73,17.8,17.8,0,0,1-5.17,12.91,17.47,17.47,0,0,1-20,3.6,19,19,0,0,1-6.23-5.11v18.54h-4.44Zm17.74,3.39a13,13,0,0,0-9.69,4,13.73,13.73,0,0,0-3.93,10,14.19,14.19,0,0,0,1.75,7.06,12.83,12.83,0,0,0,5,5,13.83,13.83,0,0,0,6.9,1.84,13.06,13.06,0,0,0,6.72-1.85,13.56,13.56,0,0,0,5-5.18,14,14,0,0,0,0-13.92,13.33,13.33,0,0,0-11.8-6.93Z"/><path class="cls-1" d="M177.38,240.4a17.07,17.07,0,0,1,13.2,5.76,18.5,18.5,0,0,1-.27,25.07,18.23,18.23,0,0,1-25.9,0,18.46,18.46,0,0,1-.27-25A17.07,17.07,0,0,1,177.38,240.4Zm0,4.34a12.81,12.81,0,0,0-9.51,4.08,13.67,13.67,0,0,0-4,9.89,14,14,0,0,0,1.81,7,12.82,12.82,0,0,0,4.9,5,13.9,13.9,0,0,0,13.54,0,12.82,12.82,0,0,0,4.9-5,14.12,14.12,0,0,0,1.81-7,13.65,13.65,0,0,0-4-9.89A12.83,12.83,0,0,0,177.36,244.74Z"/><path class="cls-1" d="M223.31,229.15,245,275.75h-5l-7.33-15.33H212.6l-7.25,15.33h-5.2l22-46.6Zm-.59,9.9-8,16.87h15.94Z"/><path class="cls-1" d="M251.82,275.75V228h4.43v19.23a18.79,18.79,0,0,1,6.24-5.12,17.49,17.49,0,0,1,20,3.61,17.77,17.77,0,0,1,5.18,12.88,17.5,17.5,0,0,1-5.22,12.76,17,17,0,0,1-12.57,5.29,16.08,16.08,0,0,1-7.62-1.8,17.74,17.74,0,0,1-6.05-5.42v6.34Zm17.74-3.39a13.35,13.35,0,0,0,11.8-6.94,14,14,0,0,0,0-14,13.61,13.61,0,0,0-5-5.18,13.09,13.09,0,0,0-6.72-1.85,13.9,13.9,0,0,0-6.91,1.85,13,13,0,0,0-5,5,14.23,14.23,0,0,0-1.75,7.07,13.77,13.77,0,0,0,3.93,10A13,13,0,0,0,269.56,272.36Z"/><path class="cls-1" d="M330.12,241.28v34.47h-4.37v-5.93a19.06,19.06,0,0,1-6.25,5.11,17.53,17.53,0,0,1-20.09-3.6,17.81,17.81,0,0,1-5.18-12.91,17.47,17.47,0,0,1,5.23-12.73A17,17,0,0,1,312,240.4a16.32,16.32,0,0,1,7.68,1.8,17.51,17.51,0,0,1,6,5.42v-6.34Zm-17.72,3.39a13.36,13.36,0,0,0-11.82,6.93,14,14,0,0,0,0,13.92,13.56,13.56,0,0,0,5,5.18,13.15,13.15,0,0,0,6.76,1.85,13.83,13.83,0,0,0,6.9-1.84,12.85,12.85,0,0,0,5-5,14.2,14.2,0,0,0,1.76-7.06,13.74,13.74,0,0,0-3.94-10A13.05,13.05,0,0,0,312.4,244.67Z"/><path class="cls-1" d="M340.1,241.28h4.44v6.18a18.6,18.6,0,0,1,5.89-5.31,14.49,14.49,0,0,1,7-1.75,12.22,12.22,0,0,1,6.86,2,11.72,11.72,0,0,1,4.42,5.29q1.42,3.33,1.42,10.36v17.74h-4.43V259.31a40.24,40.24,0,0,0-.5-7.95,8.75,8.75,0,0,0-3-5.15,8.94,8.94,0,0,0-5.7-1.73,10.94,10.94,0,0,0-7.21,2.66,12.47,12.47,0,0,0-4.2,6.59,46.12,46.12,0,0,0-.63,9.38v12.64H340.1Z"/><path class="cls-1" d="M0,327.37l2-1.21q2.15,3.93,4.94,3.93a4.63,4.63,0,0,0,2.25-.56A3.89,3.89,0,0,0,11.37,326a4,4,0,0,0-.81-2.34,19.62,19.62,0,0,0-4.08-3.83,20.52,20.52,0,0,1-3.71-3.25A6,6,0,0,1,1.5,313a5.51,5.51,0,0,1,.75-2.84,5.44,5.44,0,0,1,2.1-2,6,6,0,0,1,2.94-.73,6.34,6.34,0,0,1,3.15.83,10.94,10.94,0,0,1,3.1,3.07l-1.95,1.47a9.18,9.18,0,0,0-2.29-2.34,3.92,3.92,0,0,0-2.06-.57,3.29,3.29,0,0,0-2.36.87A2.89,2.89,0,0,0,4,312.88a3.55,3.55,0,0,0,.32,1.5A5.58,5.58,0,0,0,5.47,316c.32.3,1.34,1.1,3.08,2.38a17.13,17.13,0,0,1,4.24,4.07A6.5,6.5,0,0,1,13.94,326a6.09,6.09,0,0,1-2,4.5,6.65,6.65,0,0,1-4.79,1.91,7.05,7.05,0,0,1-3.94-1.16A10.64,10.64,0,0,1,0,327.37Z"/><path class="cls-1" d="M18.64,308H21v23.82H18.64Z"/><path class="cls-1" d="M26.49,308H40.14v2.33H28.87v7.46H40.05v2.34H28.87v9.36H40.05v2.33H26.49Z"/><path class="cls-1" d="M43.17,331.81,46.58,308H47l9.68,19.54L66.25,308h.38l3.42,23.82H67.72l-2.35-17-8.43,17h-.6l-8.53-17.17-2.34,17.17Z"/><path class="cls-1" d="M74.72,308h4.74a28.12,28.12,0,0,1,5.51.35,6.19,6.19,0,0,1,3.34,2.07,6,6,0,0,1,1.29,3.92,6,6,0,0,1-1.26,3.93,6.17,6.17,0,0,1-3.48,2.08,30.7,30.7,0,0,1-6.06.39H77.1v11.08H74.72Zm2.38,2.33v8.08l4,.05a10.41,10.41,0,0,0,3.58-.45,3.6,3.6,0,0,0,1.78-1.43,4,4,0,0,0,.65-2.23,4,4,0,0,0-.65-2.19,3.56,3.56,0,0,0-1.71-1.41,10.23,10.23,0,0,0-3.47-.42Z"/><path class="cls-1" d="M94.49,308h4.75a29.4,29.4,0,0,1,5.37.32,6.11,6.11,0,0,1,3.45,2.09,5.9,5.9,0,0,1,1.33,3.93,6.38,6.38,0,0,1-.91,3.42,5.81,5.81,0,0,1-2.62,2.23,12.05,12.05,0,0,1-4.7.77l8.57,11.06h-2.94l-8.57-11.06H96.87v11.06H94.49Zm2.38,2.33v8.1l4.11,0a10.21,10.21,0,0,0,3.52-.45,3.73,3.73,0,0,0,1.79-1.45,4,4,0,0,0,.64-2.23,3.88,3.88,0,0,0-.65-2.18,3.62,3.62,0,0,0-1.7-1.4,10.42,10.42,0,0,0-3.51-.42Z"/><path class="cls-1" d="M114.51,308h13.65v2.33H116.89v7.46h11.17v2.34H116.89v9.36h11.17v2.33H114.51Z"/><path class="cls-1" d="M163.64,312.41l-1.88,1.44a10.34,10.34,0,0,0-3.73-3.07,10.88,10.88,0,0,0-4.79-1A10.6,10.6,0,0,0,148,311.1a9.92,9.92,0,0,0-3.76,3.68,10.19,10.19,0,0,0-1.34,5.19,9.75,9.75,0,0,0,3,7.27,10.38,10.38,0,0,0,7.54,2.92,10.59,10.59,0,0,0,8.37-3.92l1.88,1.42a12.07,12.07,0,0,1-4.45,3.51,14,14,0,0,1-5.95,1.24,12.4,12.4,0,0,1-9.86-4.16,12.59,12.59,0,0,1-3-8.49A11.81,11.81,0,0,1,144,311a12.66,12.66,0,0,1,9.19-3.57,13.44,13.44,0,0,1,6,1.32A11.59,11.59,0,0,1,163.64,312.41Z"/><path class="cls-1" d="M179.76,307.39a12.35,12.35,0,0,1,9.06,3.61A12.53,12.53,0,0,1,180,332.41a12.19,12.19,0,0,1-9-3.63,11.93,11.93,0,0,1-3.65-8.78,12.74,12.74,0,0,1,1.66-6.36,12.27,12.27,0,0,1,10.74-6.25Zm.11,2.31a9.81,9.81,0,0,0-5,1.38,10,10,0,0,0-3.69,3.71,10.31,10.31,0,0,0-1.33,5.21,10,10,0,0,0,10,10.09,10.26,10.26,0,0,0,5.13-1.34,9.71,9.71,0,0,0,3.68-3.68,10.38,10.38,0,0,0,1.32-5.19,10.1,10.1,0,0,0-1.32-5.13,9.86,9.86,0,0,0-3.72-3.67A10.06,10.06,0,0,0,179.87,309.7Z"/><path class="cls-1" d="M197.26,331.81V308h.52l15.85,18.26V308H216v23.82h-.53l-15.73-18v18Z"/><path class="cls-1" d="M221.79,308h13.65v2.33H224.17v7.46h11.18v2.34H224.17v9.36h11.18v2.33H221.79Z"/><path class="cls-1" d="M261.74,312.41l-1.87,1.44a10.38,10.38,0,0,0-3.74-3.07,10.86,10.86,0,0,0-4.78-1,10.6,10.6,0,0,0-5.28,1.36,9.88,9.88,0,0,0-3.77,3.68A10.18,10.18,0,0,0,241,320a9.74,9.74,0,0,0,3,7.27,10.4,10.4,0,0,0,7.54,2.92,10.62,10.62,0,0,0,8.38-3.92l1.87,1.42a12,12,0,0,1-4.44,3.51,14,14,0,0,1-6,1.24,12.37,12.37,0,0,1-9.86-4.16,12.59,12.59,0,0,1-3-8.49,11.8,11.8,0,0,1,3.66-8.8,12.66,12.66,0,0,1,9.19-3.57,13.48,13.48,0,0,1,6,1.32A11.63,11.63,0,0,1,261.74,312.41Z"/><path class="cls-1" d="M264.16,310.32V308h13v2.33H271.9v21.49h-2.43V310.32Z"/><path class="cls-1" d="M290.37,308l11.11,23.82h-2.57L295.17,324H284.9l-3.71,7.84h-2.65L289.79,308Zm-.3,5.06L286,321.67h8.15Z"/><path class="cls-1" d="M305.18,331.81V308h4.94a24.93,24.93,0,0,1,7.75.86,10.36,10.36,0,0,1,5.42,4.21,12.76,12.76,0,0,1,1.95,7.14,12.57,12.57,0,0,1-1.55,6.3,9.92,9.92,0,0,1-4,4,15.08,15.08,0,0,1-6.93,1.3Zm2.28-2.25h2.75a25.59,25.59,0,0,0,6.85-.62,7.94,7.94,0,0,0,4.23-3.14,9.75,9.75,0,0,0,1.54-5.56,10.21,10.21,0,0,0-1.67-5.89,8.36,8.36,0,0,0-4.65-3.35,28.21,28.21,0,0,0-7.37-.68h-1.68Z"/><path class="cls-1" d="M341.2,307.39a12.35,12.35,0,0,1,9.06,3.61,12.53,12.53,0,0,1-8.87,21.41,12.18,12.18,0,0,1-8.94-3.63A11.93,11.93,0,0,1,328.8,320a12.74,12.74,0,0,1,1.66-6.36,12.27,12.27,0,0,1,10.74-6.25Zm.1,2.31a9.8,9.8,0,0,0-5,1.38,10,10,0,0,0-3.7,3.71,10.41,10.41,0,0,0-1.33,5.21,10,10,0,0,0,10,10.09,10.29,10.29,0,0,0,5.14-1.34,9.71,9.71,0,0,0,3.68-3.68,10.38,10.38,0,0,0,1.32-5.19,10.1,10.1,0,0,0-1.32-5.13,9.86,9.86,0,0,0-3.72-3.67A10.07,10.07,0,0,0,341.3,309.7Z"/><path class="cls-1" d="M356.22,327.37l2-1.21q2.14,3.93,4.94,3.93a4.63,4.63,0,0,0,2.25-.56,3.89,3.89,0,0,0,2.16-3.49,4,4,0,0,0-.81-2.34,19.62,19.62,0,0,0-4.08-3.83,20.52,20.52,0,0,1-3.71-3.25,6,6,0,0,1-1.27-3.64,5.51,5.51,0,0,1,.75-2.84,5.44,5.44,0,0,1,2.1-2,6,6,0,0,1,2.94-.73,6.34,6.34,0,0,1,3.15.83,10.94,10.94,0,0,1,3.1,3.07l-1.95,1.47a9.18,9.18,0,0,0-2.29-2.34,3.92,3.92,0,0,0-2.06-.57,3.29,3.29,0,0,0-2.36.87,2.89,2.89,0,0,0-.91,2.16,3.55,3.55,0,0,0,.32,1.5,5.58,5.58,0,0,0,1.18,1.59c.32.3,1.34,1.1,3.08,2.38a17.13,17.13,0,0,1,4.24,4.07,6.5,6.5,0,0,1,1.15,3.58,6.06,6.06,0,0,1-2,4.5,6.61,6.61,0,0,1-4.78,1.91,7.05,7.05,0,0,1-3.94-1.16A10.64,10.64,0,0,1,356.22,327.37Z"/></g></g></svg>