<?xml version="1.0" encoding="utf-8"?>
<!-- Generator: Adobe Illustrator 25.4.1, SVG Export Plug-In . SVG Version: 6.00 Build 0)  -->
<svg version="1.1" id="Capa_1" xmlns="http://www.w3.org/2000/svg" xmlns:xlink="http://www.w3.org/1999/xlink" x="0px" y="0px"
	 viewBox="0 0 532.6 119.3" style="enable-background:new 0 0 532.6 119.3;" xml:space="preserve">
<style type="text/css">
	.st0{fill:#FFFFFF;}
	.st1{fill:#060505;}
	.st2{fill:#E4231F;}
	.st3{fill:#8BAD2D;}
	.st4{fill:#67872D;}
	.st5{fill:#AECB4E;}
	.st6{fill:#7C1F1C;}
	.st7{fill:#E94D50;}
	.st8{fill:#1A0706;}
	.st9{fill:#E94D51;}
	.st10{fill:#1F0908;}
	.st11{fill:#E84C4F;}
	.st12{fill:#E94D4D;}
	.st13{fill:#E84E4E;}
	.st14{fill:#E84E4F;}
	.st15{fill:#E84A49;}
	.st16{fill:#D9474A;}
	.st17{fill:#A92420;}
	.st18{fill:#A51C1C;}
	.st19{fill:#F9EAE4;}
	.st20{fill:#E9E4E1;}
	.st21{fill:#F7DDD5;}
	.st22{fill:#F9EFE9;}
</style>
<g id="Capa_2_00000150066238452032899700000002591887146109846172_">
	<g id="Capa_1-2">
		<path class="st0" d="M9.5,119.3L9.5,119.3c-0.1,0-0.3,0-0.4,0c-2.8,0-5.4-1.2-7.1-3.4l-0.1-0.1l-0.1-0.1c-1.7-2.5-2.2-5.8-1.3-8.7
			c0.7-2.7,1.7-5,2.9-7.2c2.8-5.2,5-11,6.4-17.2c2.6-11.1,6.8-19.3,13.1-25.8c5.4-5.6,11.1-10.9,17-15.8c6.6-5.5,13.8-10,21.4-13.3
			c5.5-2.5,11.4-3.8,17.3-3.8c2.6,0,5.2,0.3,8.1,0.9c2.5,0.5,4.9,1.5,7.2,2.8c1.1-0.6,2.4-0.9,3.7-0.9c1,0,1.7,0.2,2.2,0.3l0.3,0.1
			c2.7,0.8,5.3,3,5.9,6.6c0.5-0.5,1-0.9,1.4-1.4l0.1-0.1c3.7-3.8,7.4-7.6,9.4-12.2c0.9-2.1,0.7-2.7,0.6-3c-2-5.2-0.9-10.3,3-13.6
			c2.2-1.9,5-2.9,7.8-2.9c1.9,0,3.7,0.4,5.4,1.2c2.9,1.2,5.6,2.8,8,4.9c4.8,4,6.1,9.1,3.8,14.8c-1.8,4.5-4,8.8-6.7,13.2
			c-5.4,8.8-11.6,16.7-19,25.6c0.8,0.6,1.5,1.3,2,2.2c1.3,2,1.8,4.4,1.4,6.7c-0.6,2.8-2.4,5-4.8,6.3c0,1.3,0,2.7-0.1,4.1
			c-1,10.4-6.1,18.3-14.9,22.9c-5.1,2.6-10.5,4.8-16.6,6.6l-0.2,0c-0.7,0.2-1.2,0.4-1.7,0.7c-6.1,4.9-13.2,6.5-18.9,7.7l-0.3,0.1
			l-0.3,0.1c-4.3,1-8.7,1.4-13.5,1.4c-6-0.1-11.3-0.6-16.3-1.5c-2.8-0.5-5.5-0.7-8-0.7c-4.8,0-9.5,0.7-14,2.2l-0.1,0
			c-0.4,0.2-1.5,0.7-2.8,0.7H9.5z"/>
		<path class="st0" d="M9.1,114.3c-1.2,0-2.4-0.5-3.2-1.5c-0.9-1.3-1.1-3-0.6-4.4c0.6-2.2,1.4-4.3,2.5-6.3
			c3.1-5.8,5.4-12.1,6.9-18.5c2.4-10.2,6.1-17.6,11.8-23.5c5.2-5.4,10.8-10.6,16.6-15.4c6.1-5.1,12.9-9.4,20.2-12.6
			c4.8-2.2,10-3.4,15.3-3.4c2.4,0,4.7,0.3,7,0.8c3.2,0.7,6.2,2.2,8.8,4.2c0.5-1.3,1.8-2.2,3.2-2.2c0.4,0,0.7,0.1,1.1,0.2
			c0.7,0.2,2.9,1.1,2.4,4.5v0.1l0.1,0.8c0.2,2.1,0.3,3.5,1.2,4.5c0.2,0.2,0.3,0.4,0.4,0.5c0.1-0.1,0.3-0.1,0.4-0.2
			c2.9-1.8,5.6-4,7.9-6.5c3.8-3.9,8.1-8.3,10.4-13.8c1.2-2.8,1.4-4.8,0.6-6.8c-1.2-3.1-0.7-6,1.6-8c1.3-1.1,2.9-1.7,4.5-1.7
			c1.2,0,2.4,0.3,3.4,0.8c2.5,1,4.8,2.4,6.8,4.1c3.1,2.6,3.9,5.4,2.4,9.1c-1.7,4.3-3.8,8.4-6.3,12.4c-6.1,9.8-13.2,18.6-20.6,27.4
			c-0.3,0.4-0.7,0.7-1,1.1l-0.3,0.3c-0.2,0.2-0.3,0.4-0.3,0.4c0,0.1,0.1,0.3,0.2,0.4l0.7,0.6c0.6,0.6,1.2,1.1,2,1.4
			c2.1,0.4,3.4,2.5,3,4.5c-0.4,1.9-2.2,3.3-4.1,3.2h-0.4l-0.8-0.1c0.5,2.6,0.5,5.3,0.3,7.9c-0.8,8.6-4.9,15-12.2,18.8
			c-5,2.6-10.2,4.6-15.7,6.2c-1.2,0.3-2.4,0.8-3.5,1.6c-5.2,4.2-11.3,5.6-17.2,6.9l-0.3,0.1c-4.1,0.9-8.2,1.3-12.4,1.3
			c-5.1-0.1-10.3-0.5-15.4-1.4c-2.9-0.5-5.9-0.8-8.9-0.8c-5.5,0-11,0.9-16.2,2.7l-0.1,0.1c-0.2,0.1-0.4,0.2-0.6,0.2
			C10.5,114.2,9.8,114.3,9.1,114.3z"/>
		<path class="st0" d="M109,67.2c1.3,3.5,1.8,7.2,1.3,10.9c-0.7,7.3-3.9,12.9-10.6,16.4c-4.8,2.5-9.9,4.4-15.1,5.9
			c-1.6,0.4-3.1,1.1-4.5,2.1c-4.7,3.9-10.4,5.1-16.2,6.3c-8.9,2-17.7,1.3-26.6-0.2c-8.8-1.6-17.9-0.8-26.4,2.1
			c-0.2,0.1-0.4,0.2-0.6,0.2c-2,0.6-2.5,0-2-2s1.3-3.9,2.3-5.7c3.2-6.1,5.6-12.5,7.2-19.2c1.9-8.2,5-15.9,11-22.1
			c5.1-5.4,10.6-10.4,16.3-15.1c5.9-5,12.5-9.1,19.5-12.2c6.5-2.9,13.3-4.1,20.5-2.5c3,0.7,5.9,2.2,8.2,4.2c1.4,1.2,2.4,1,3.5-0.6
			c0.3-0.5,0.3-1.7,1.2-1.4c0.7,0.2,0.2,1.1,0.2,1.8c0.2,2.5,0.2,5.1,1.9,7.2c1.4,1.8,2.6,2.1,4.6,1c3.2-1.9,6.1-4.3,8.6-7
			c4.3-4.4,8.6-8.9,11.1-14.8c1.2-3,1.8-5.9,0.6-9.1c-0.6-1.6-0.7-3.3,0.8-4.6s3.2-1.2,4.8-0.5c2.2,0.9,4.2,2.1,6.1,3.6
			c2.1,1.7,2.5,3.2,1.5,5.7c-1.6,4.1-3.7,8.1-6,11.9c-6,9.6-13.1,18.4-20.3,27.1c-0.4,0.4-0.8,0.8-1.2,1.1c-1.4,1.2-1.6,3.3-0.4,4.7
			c0.1,0.2,0.3,0.3,0.5,0.5c1.2,1,2.2,2.2,3.8,2.7c0.4,0.1,1,0.5,0.8,1c-0.1,0.6-0.7,1-1.4,0.9L109,67.2z"/>
		<path class="st1" d="M109,67.2c1.3,3.5,1.8,7.2,1.3,10.9c-0.7,7.3-3.9,12.9-10.6,16.4c-4.8,2.5-9.9,4.4-15.1,5.9
			c-1.6,0.4-3.1,1.1-4.5,2.1c-4.7,3.9-10.4,5.1-16.2,6.3c-8.9,2-17.7,1.3-26.6-0.2c-8.8-1.6-17.9-0.8-26.4,2.1
			c-0.2,0.1-0.4,0.2-0.6,0.2c-2,0.6-2.5,0-2-2s1.3-3.9,2.3-5.7c3.2-6.1,5.6-12.5,7.2-19.2c1.9-8.2,5-15.9,11-22.1
			c5.1-5.4,10.6-10.4,16.3-15.1c5.9-5,12.5-9.1,19.5-12.2c6.5-2.9,13.3-4.1,20.5-2.5c3,0.7,5.9,2.2,8.2,4.2c1.4,1.2,2.4,1,3.5-0.6
			c0.3-0.5,0.3-1.7,1.2-1.4c0.7,0.2,0.2,1.1,0.2,1.8c0.2,2.5,0.2,5.1,1.9,7.2c1.4,1.8,2.6,2.1,4.6,1c3.2-1.9,6.1-4.3,8.6-7
			c4.3-4.4,8.6-8.9,11.1-14.8c1.2-3,1.8-5.9,0.6-9.1c-0.6-1.6-0.7-3.3,0.8-4.6s3.2-1.2,4.8-0.5c2.2,0.9,4.2,2.1,6.1,3.6
			c2.1,1.7,2.5,3.2,1.5,5.7c-1.6,4.1-3.7,8.1-6,11.9c-6,9.6-13.1,18.4-20.3,27.1c-0.4,0.4-0.8,0.8-1.2,1.1c-1.4,1.2-1.6,3.3-0.4,4.7
			c0.1,0.2,0.3,0.3,0.5,0.5c1.2,1,2.2,2.2,3.8,2.7c0.4,0.1,1,0.5,0.8,1c-0.1,0.6-0.7,1-1.4,0.9L109,67.2z"/>
		<path class="st2" d="M11.8,107.3c2.2-3.6,4-7.4,5.3-11.3c2.3-6.5,3.7-13.3,5.9-19.8c1.4-4,4.1-7.3,6.7-10.6
			c4.8-5.8,10.2-11.2,16-15.9c5.2-4.5,11-8.3,17.2-11.4c4.8-2.4,10-3.8,15.3-4.2c4.7-0.3,9.2,1.4,12.6,4.6c1.4,1.3,2.8,2.8,2.6,5.2
			c0,1.3,0.3,2.6,0.8,3.9c1.2,3.4,3.2,6.6,2.9,10.5c-0.1,0.6,0.2,1.2,0.7,1.5c2.7,1.3,4.3,3.8,6.2,6c0.2,0.2,0.3,0.5,0.5,0.6
			c2,0.7,2.3,2.6,2.6,4.2c0.8,6,1,11.9-3,17c-2.4,2.9-5.5,5.2-9,6.6c-3.6,1.7-7.5,2.6-11.3,3.8c-2.5,0.9-4.9,2-7.1,3.5
			c-4.1,2.5-8.5,4.3-13.2,5.1c-6.8,1.2-13.8,1.3-20.7,0.3c-4.9-0.7-9.8-1.2-14.7-1.4c-4.7-0.3-9.5,0.3-14,1.7
			c-0.4,0.2-0.8,0.3-1.1,0.6C12.6,107.8,12,108.2,11.8,107.3z"/>
		<path class="st3" d="M134.6,14.3c1.4,1.1,1,2.6,0.4,3.8c-5.8,12.1-12.7,23.5-22.3,33c-0.1,0.1-0.2,0.2-0.4,0.3
			c-0.4-0.6-0.4-0.6,0-1.2c1.9-2.8,3.8-5.5,5.9-8.1c3.8-5.1,7.4-10.5,10.6-16c1.1-1.6,2.1-3.2,3-4.9c-0.8,0-1.6,0.5-1.9,1.3
			c-0.7,1.2-1,2.6-1.6,3.9c-1.9,4.2-4.9,7.5-8,10.8c-0.9,1-1.7,2.1-2.4,3.2c-2.4,3.9-5.3,7.5-8.7,10.5c-0.9,0.8-2,1.2-3.1,1.2
			c-0.6,0-1.2,0-1.8,0.2c-2.4,0.5-3.5,2.6-2,4.5s2.5,4,4,6c-0.1-1.1-0.3-2.1-0.3-3.1c-0.2-3.6,2-5.6,4.6-7.5
			c0.3-0.2,0.3-0.2,0.9,0.2c-0.9,1.2-1.8,2.4-2.7,3.6c-2.8,3.8-2.6,6.1,0.8,9.4c-2.5,0.6-3.5,0.3-5.2-1.6c-1.3-1.6-2.8-3.1-4.5-4.4
			c-0.8-0.6-1.2-1.5-1.3-2.5c-0.4-4.2-2.5-8-3.7-12c-0.5-1.4-0.4-2.9,0.2-4.2c0.2,0.1,0.4,0.2,0.4,0.5c0.4,3,2.5,5.3,3.2,8.2
			c0.5,2,1.1,2.3,3,1.7c4.1-1.6,7.9-4,11.1-7.1c1.9-1.8,3.5-3.8,4.9-5.9c1.1-1.5,2.3-3,3.6-4.4c3.6-4.4,6.5-9.4,8.5-14.7
			c0.3-0.8,0.7-1.5,1-2.2C131.4,15.2,132.9,14.2,134.6,14.3z"/>
		<path class="st4" d="M111.4,52.4c-2.2,0.7-4.8,3.7-4.9,5.8c-0.2,0.9-0.2,1.9,0,2.9s0.4,1.9,0.5,2.9c-1.1-0.9-2-2.1-2.6-3.4
			c-0.5-1-1.1-1.9-1.8-2.7c-1.1-1-1.6-2.7-1.1-4.1c0.4-1.4,1.7-2.3,3.1-2c4.2,0.4,6-2.8,8.3-5.2c2.6-2.6,4.2-5.9,6.4-8.8
			c0.7-0.9,1.5-1.8,2.3-2.6c3.4-3.2,5.9-7.2,7.3-11.5c0.9-2.5,1.5-2.9,3.5-2.8c-0.5,1.2-1.1,2.3-1.8,3.4c-2.4,3.8-4.9,7.5-7.2,11.4
			c-2.7,4.6-6.4,8.4-9.3,12.9c-0.6,1-1.7,1.7-1.8,3C112.2,51.9,111.8,52.2,111.4,52.4z"/>
		<path class="st5" d="M134.6,14.3c-3.7,1-4.1,4.4-5.4,7.2c-2.1,4.8-4.9,9.3-8.3,13.3c-3.4,3.9-6,8.4-10.2,11.5
			c-2.6,2.1-5.5,3.8-8.6,5c-2.6,0.9-3.2,0.6-3.9-2c-0.3-1.3-0.9-2.5-1.6-3.7c-0.8-1.5-1.4-3.2-1.5-5c0.3-0.8,0.9-1.5,1.7-1.9
			c-0.5,2-0.3,4.2,0.7,6c2,3.9,4.9,4.8,8.8,2.5c2.6-1.5,4.9-3.3,7-5.4c5.2-5.6,10.3-11.2,13.7-18.2c1.6-3,1.9-6.6,1-9.8
			c-0.2-0.8-0.5-1.7,0.2-2.4c0.7-0.7,1.6-0.3,2.4-0.1C132.3,12,133.7,13,134.6,14.3z"/>
		<path class="st6" d="M11.8,107.3c0.3,0.6,0.9,0.2,1.3,0.3c-0.2,0.3-0.6,0.5-1,0.6c-0.3,0-0.7,0.2-0.8-0.3S11.5,107.5,11.8,107.3z"
			/>
		<path class="st7" d="M36.8,85.4c-0.3-7.7,4.4-12,10.4-15.4c3.9-2.3,8.4-3.4,12.1-6.3c1.7-1.5,3.3-3.3,4.5-5.2
			c2-2.7,4.6-3.7,7.7-3.9c1.2-0.2,2.4,0.5,2.8,1.6c0.5,1.4-0.3,2.2-1.3,3c-2.1,1.6-4.6,2.7-7.3,3.2c-3.6,0.5-6.5,2.6-9.6,4.2
			c-4,2.2-6.4,5.8-8.7,9.4c-2.3,3.6-4.8,6.9-7.6,9.9c-0.3,0.3-0.5,0.5-0.9,0.7c-0.5,0.4-1,0.9-1.7,0.5S36.8,86,36.8,85.4z"/>
		<path class="st8" d="M97.8,74.7c-1.4,4-3.9,7.6-7.2,10.2c-3,2.2-6.4,3.7-10,4.7c-3.5,1.1-7.1,1.2-10.8,1.4
			c-3.7,0.2-7.4,0.7-11.1,1.4c-0.3,0.4-0.7,0.6-1.2,0.7c-3.2,0.7-6.1,2.2-8.6,4.4c-0.3,0.3-0.6,0.5-1,0.5
			c-7.1,3.6-15.2,4.6-22.9,2.9c5.1-0.3,10.2-0.8,15.2-1.7c0.6-0.5,1.4-0.2,2-0.6c3.4-0.8,6.1-2.8,8.9-4.8c3.2-2.2,6.8-3,10.4-3.6
			c4.6-0.8,9.3-1,13.9-1.5c5.3-0.6,10.4-2.1,14.5-5.7c3.1-2.7,5.6-6.2,7.2-10c0.3-0.6,0.7-0.5,0.8,0.1
			C98.2,73.7,98.1,74.2,97.8,74.7z"/>
		<path class="st9" d="M48,98c2.8-3.4,6.6-4.8,10.8-5.6c1.3-0.2,2.3,0.7,3.5,1c2.2,0.6,4.3,1.5,6.3,2.7c0.4,0.3,1,0.6,0.9,1.2
			c-0.1,0.5-0.6,0.9-1.1,1c-5,1.2-9.9,2.7-15,3.2C50.5,101.8,49.2,100,48,98z"/>
		<path class="st10" d="M83.5,48.6c1.9,0.4,4-0.2,5.8,0.8c1.3,0.7,2.6,1.4,3.9,2c0.4,0.1,0.6,0.5,0.6,0.9c-0.1,0.5-0.6,0.3-0.9,0.4
			c-0.4,0.1-0.8,0-1.1-0.2c-2.5-1.6-5.5-1.9-8.3-2.6c-1.6-0.5-3.3-0.6-4.9-0.2c-6.8,0.7-12.6,3.6-17.8,7.8c-2,1.6-4,3.2-5.8,5
			c-0.7,0.6-1.6,1.1-2.4,1.4c-4.8,2.2-8.5,5.9-12.5,9.2c-4.7,4-8.9,8.5-12.6,13.4c-0.1,0.2-0.3,0.5-0.4,0.7c-0.5-0.5-0.6-1.4-0.1-2
			c2.1-3.7,5-6.7,7.9-9.7c3.8-3.9,8-7.5,12.5-10.6c0.9-0.7,2-1.2,3.1-1.7c2.9-1,4.7-3.4,7-5.1c3.9-3,7.9-6,12.5-7.8
			c0.8-0.2,1.7-0.5,2.4-0.9c1.7-0.8,3.5-1.2,5.4-1.2c1.3,0,2.6-0.2,3.8-0.2C82.4,47.9,83.1,48.1,83.5,48.6z"/>
		<path class="st11" d="M52.3,50.9c-1.1,2-2.5,3.8-4,5.5c-4.3,5.2-9.5,9.5-14.2,14.2c-0.3,0.3-0.7,0.5-1.1,0.7
			c-0.5,0.3-1.1,0.3-1.5-0.1s-0.5-1-0.2-1.5c1.1-3.2,2.7-5.9,6.2-7c2-0.7,3.6-2.1,4.7-4c1.9-3,4.8-4.8,7.5-7
			C50.4,51.2,51.3,50.9,52.3,50.9z"/>
		<path class="st9" d="M75.3,78.2c-0.2,0-0.3,0-0.5,0c-3.9-1.6-7.1,0.6-10.5,2c-0.8,0.3-1.7,1-2.4,0.2s-0.1-1.8,0.4-2.7
			c1.2-2.1,3.4-2.9,5.5-3.6c1.8-0.4,3.5-1.3,5-2.5c2.3-2.2,4.9-1.5,7.4-1c1.1,0.2,1.3,1.3,1.1,2.2C80.6,75.5,78.9,78.5,75.3,78.2z"
			/>
		<path class="st12" d="M73.4,43.9c-3.1,0.2-6.2,0.6-9.2,1.2c-0.7,0.1-1.5,0.2-2.2,0.2c-0.5,0-1,0.1-1.2-0.5s0.3-0.8,0.6-1
			c0.9-0.8,2-1.4,3.2-1.8c3.9-1.1,7.8-2.2,11.7-3.3c1-0.2,2-0.2,3,0c0.8,0.1,1.4,0.6,1.6,1.4c0.2,0.7-0.1,1.5-0.7,1.9
			C78.2,43.4,75.8,44.1,73.4,43.9z"/>
		<path class="st13" d="M33.4,89.9c1.4-0.1,2.8,0.1,4.1,0.6c1,0.5,2.1,0.6,3.2,0.2c0.5-0.2,1-0.3,1.3,0.1c0.3,0.5,0.3,1.1,0,1.5
			c-1.3,3-2.9,3.7-5.9,2.4c-1.9-0.8-3.7-1.8-5.3-3c-0.4-0.3-1-0.6-0.8-1.2s0.9-0.6,1.5-0.6H33.4z"/>
		<path class="st14" d="M83.6,49.9c3.4-0.2,6.7,0.9,9.3,2.9c0.5,0.6,0.1,1.1-0.3,1.5s-1,0.2-1.4-0.1C88.7,52.8,86.1,51.4,83.6,49.9z
			"/>
		<path class="st15" d="M103.6,68.6c-0.9-1.3-2-2.6-3.2-3.7c-0.9-0.9-2.2-1.3-3.2-2.2c-0.3-0.3-1-0.6-0.6-1.3s1-0.5,1.6-0.3
			C100.9,62.1,103.6,65.7,103.6,68.6z"/>
		<path class="st16" d="M83.5,48.6c-3.7,0-7.4,0.3-11,1c1.9-1.5,4.2-1.8,6.6-2c2.1-0.1,4.2,0.2,6.1,0.8L83.5,48.6z"/>
		<path class="st17" d="M97.8,74.7c0-0.4,0-0.8,0-1.2s-0.2-0.6-0.7-0.4c0-0.5,0-1,0.7-1s0.6,0.6,0.6,1
			C98.3,73.7,98.7,74.4,97.8,74.7z"/>
		<path class="st18" d="M42.2,98.6c-0.5,0.6-1.3,0.8-2,0.6C40.6,98.1,41.6,98.7,42.2,98.6z"/>
		<path class="st19" d="M41.4,79.3c-0.1-2.1,0.7-4.2,2.1-5.7c0.3-0.3,0.7-0.8,1.2-0.4s0.3,0.9,0.1,1.3
			C43.9,76.2,42.8,77.9,41.4,79.3z"/>
		<path class="st20" d="M76.4,77.5c-0.5-0.1-1.2-0.1-1.3-0.5c-0.4-1.4-1.6-1.7-2.6-2.3c-0.6-0.2-0.9-0.8-0.8-1.4
			c0.3-0.7,1-1.2,1.8-1.1c2,0,3.9,0.7,5.4,1.9c0.6,0.5,0.2,1.1,0,1.6C78.5,76.8,77.5,77.5,76.4,77.5z"/>
		<path class="st21" d="M68,42.4c1.4-1.1,3.1-1.8,4.9-1.9c0.7-0.1,1.4,0.5,1.5,1.2c0.1,0.9-0.8,0.6-1.3,0.7
			c-1.6,0.2-3.3,0.3-4.9,0.5L68,42.4z"/>
		<path class="st22" d="M37.4,94c-1.5-0.4-3.1-0.4-4.3-1.7c-0.2-0.2-0.5-0.4-0.3-0.8s0.5-0.2,0.8-0.1c1.4,0.2,2.8,0.3,4.1,0.5
			c0.7,0.1,1.9,0.1,1.8,1.2C39.4,93.9,38.3,93.9,37.4,94z"/>
		<path class="st0" d="M209.4,19.3l-3.6,3.4c-2.5-2.5-5.3-4.5-8.5-5.9c-2.8-1.3-5.9-1.9-9-2c-3.7,0-7.2,0.9-10.4,2.7
			c-3.2,1.7-5.8,4.2-7.7,7.3c-1.8,2.9-2.7,6.3-2.7,9.7c0,3.5,1,7,2.8,10c1.9,3.1,4.6,5.7,7.8,7.4c3.3,1.8,7.1,2.7,10.9,2.7
			c4.4,0.2,8.7-1.3,12.2-4c3.3-2.6,5.4-6.4,5.9-10.5h-15v-4.5h20.1c-0.1,7.2-2.2,12.9-6.4,17.1s-9.9,6.3-17,6.3
			c-8.6,0-15.4-2.9-20.5-8.8c-3.8-4.3-5.9-9.9-5.8-15.7c0-4.3,1.1-8.6,3.3-12.3s5.3-6.8,9.1-8.9c4-2.2,8.6-3.3,13.2-3.2
			c3.8,0,7.6,0.7,11.1,2.1C203,14.1,206.5,16.4,209.4,19.3z"/>
		<path class="st0" d="M218.6,23.6h4.5v5c1.1-1.7,2.6-3.3,4.3-4.4c1.4-0.9,3-1.4,4.7-1.4c1.4,0,2.8,0.4,4,1.1l-2.3,3.7
			c-0.7-0.4-1.5-0.6-2.4-0.6c-1.6,0-3.2,0.7-4.3,1.9c-1.6,1.5-2.7,3.5-3.1,5.6c-0.5,2-0.8,6-0.8,11.9V58h-4.5L218.6,23.6z"/>
		<path class="st0" d="M239.2,23.6h4.4v16.1c-0.1,2.7,0.1,5.4,0.6,8.1c0.6,2,1.9,3.8,3.6,5c1.9,1.3,4.1,1.9,6.4,1.8
			c2.2,0.1,4.4-0.6,6.3-1.8c1.7-1.1,2.9-2.8,3.6-4.7c0.4-1.3,0.7-4.2,0.7-8.5v-16h4.5v16.9c0,4.8-0.6,8.3-1.7,10.7
			c-1.1,2.3-2.8,4.3-5,5.7c-2.6,1.4-5.5,2.1-8.4,2c-2.9,0.1-5.8-0.6-8.4-2c-2.2-1.3-4-3.3-5-5.7c-1.1-2.4-1.7-6.1-1.7-11L239.2,23.6
			z"/>
		<path class="st0" d="M279.3,23.6h4.4v6.3c1.6-2.2,3.6-4.1,6-5.4c2.4-1.2,5-1.8,7.6-1.8c4.7-0.1,9.3,1.9,12.6,5.3
			c3.4,3.4,5.3,8,5.2,12.7c0.1,4.8-1.8,9.5-5.2,12.9c-5.2,5.4-13.3,6.8-20,3.6c-2.4-1.2-4.5-3-6.2-5.1v18.5h-4.4V23.6z M297.1,27
			c-3.6-0.1-7.2,1.4-9.7,4c-2.6,2.7-4,6.3-3.9,10c0,2.5,0.6,4.9,1.8,7.1c1.2,2.1,2.9,3.8,5,5s4.5,1.8,6.9,1.8s4.7-0.6,6.7-1.8
			c2.1-1.2,3.8-3,5-5.2c1.2-2.1,1.9-4.5,1.9-7s-0.6-4.9-1.9-7C306.5,29.6,302,27,297.1,27z"/>
		<path class="st0" d="M339.8,22.8c5-0.1,9.9,2,13.2,5.8c3.1,3.4,4.8,7.8,4.8,12.4c0.1,4.7-1.7,9.2-5,12.6
			c-7.1,7.1-18.6,7.2-25.8,0.1l-0.1-0.1c-3.3-3.4-5-7.9-5-12.6c-0.1-4.6,1.6-9,4.8-12.4C330,24.8,334.8,22.6,339.8,22.8z
			 M339.8,27.1c-3.6,0-7.1,1.4-9.5,4.1c-2.6,2.6-4.1,6.2-4,9.9c0,2.5,0.6,4.9,1.8,7c1.1,2.1,2.8,3.8,4.9,5c4.2,2.3,9.3,2.3,13.5,0
			c2.1-1.2,3.8-2.9,4.9-5c1.2-2.1,1.8-4.5,1.8-7c0.1-3.7-1.4-7.3-4-9.9C346.8,28.6,343.4,27.1,339.8,27.1L339.8,27.1z"/>
		<path class="st0" d="M385.8,11.5l21.7,46.6h-5l-7.4-15.3h-20l-7.3,15.3h-5.2l22-46.6L385.8,11.5z M385.2,21.4l-8,16.9h15.9
			L385.2,21.4z"/>
		<path class="st0" d="M414.3,58.1V10.3h4.4v19.2c1.7-2.1,3.8-3.9,6.2-5.1c2.4-1.1,5-1.7,7.6-1.7c4.7-0.1,9.3,1.9,12.5,5.3
			c3.4,3.4,5.3,8,5.2,12.8c0.1,4.8-1.8,9.4-5.2,12.8c-3.3,3.4-7.8,5.4-12.6,5.3c-2.7,0-5.3-0.6-7.6-1.8c-2.4-1.3-4.4-3.2-6-5.4v6.4
			C418.8,58.1,414.3,58.1,414.3,58.1z M432,54.7c4.9,0,9.4-2.6,11.8-6.9c2.5-4.3,2.5-9.7,0-14c-1.2-2.1-2.9-3.9-5-5.2
			c-2-1.2-4.3-1.8-6.7-1.8c-2.4,0-4.8,0.6-6.9,1.9c-2.1,1.2-3.8,2.9-5,5c-1.2,2.2-1.8,4.6-1.8,7.1c-0.1,3.7,1.3,7.3,3.9,10
			C424.9,53.3,428.4,54.8,432,54.7L432,54.7z"/>
		<path class="st0" d="M492.6,23.6v34.5h-4.4v-5.9c-1.7,2.1-3.8,3.9-6.3,5.1c-6.8,3.2-14.9,1.8-20.1-3.6c-3.4-3.4-5.3-8.1-5.2-12.9
			c-0.1-4.8,1.8-9.4,5.2-12.7c3.3-3.4,7.8-5.4,12.6-5.3c2.7,0,5.3,0.6,7.7,1.8c2.4,1.3,4.4,3.2,6,5.4v-6.3L492.6,23.6L492.6,23.6z
			 M474.9,27c-4.9,0-9.5,2.6-11.8,6.9c-2.5,4.3-2.4,9.6,0.1,13.9c1.2,2.1,2.9,3.9,5,5.2c2,1.2,4.4,1.8,6.7,1.8
			c2.4,0,4.8-0.6,6.9-1.8s3.8-2.9,5-5c1.2-2.2,1.8-4.6,1.8-7.1c0.1-3.7-1.3-7.3-3.9-10C482,28.4,478.5,26.9,474.9,27z"/>
		<path class="st0" d="M502.6,23.6h4.4v6.2c1.6-2.2,3.6-4,5.9-5.3c2.1-1.2,4.6-1.8,7-1.8s4.8,0.7,6.9,2c2,1.3,3.5,3.1,4.4,5.3
			s1.4,5.7,1.4,10.4v17.7h-4.5V41.7c0.1-2.7-0.1-5.3-0.5-8c-0.4-2-1.4-3.8-3-5.1c-1.7-1.2-3.7-1.8-5.7-1.7c-2.6,0-5.2,0.9-7.2,2.7
			c-2.1,1.7-3.5,4-4.2,6.6c-0.5,3.1-0.7,6.2-0.6,9.4v12.6h-4.4L502.6,23.6z"/>
		<path class="st0" d="M162.5,109.2l2-1.2c1.4,2.6,3,3.9,4.9,3.9c0.8,0,1.6-0.2,2.3-0.6c0.7-0.3,1.2-0.9,1.6-1.5
			c0.4-0.6,0.5-1.3,0.5-2c0-0.9-0.3-1.7-0.8-2.3c-1.2-1.5-2.5-2.8-4.1-3.8c-1.4-0.9-2.6-2-3.7-3.2c-0.8-1-1.2-2.3-1.3-3.7
			c0-1,0.2-2,0.7-2.8c0.5-0.9,1.2-1.5,2.1-2c0.9-0.5,2-0.8,3-0.7c1.1,0,2.2,0.3,3.1,0.8c1.2,0.8,2.2,1.8,3,3l-1.9,1.5
			c-0.6-0.9-1.4-1.7-2.3-2.3c-0.6-0.4-1.3-0.6-2.1-0.6c-0.9,0-1.7,0.3-2.3,0.9s-0.9,1.3-0.9,2.2c0,0.5,0.1,1,0.3,1.5
			c0.3,0.6,0.7,1.1,1.2,1.6c0.3,0.3,1.3,1.1,3,2.4c1.6,1.1,3.1,2.5,4.2,4.1c0.7,1.1,1.1,2.3,1.2,3.6c0,1.7-0.7,3.4-2,4.5
			c-1.3,1.3-3,1.9-4.8,1.9c-1.4,0-2.8-0.4-3.9-1.2C164.3,112.1,163.2,110.8,162.5,109.2z"/>
		<path class="st0" d="M181.1,90.5h2.4v23.8h-2.4V90.5z"/>
		<path class="st0" d="M189,90.5h13.6v2.3h-11.3v7.6h11.2v2.3h-11.2v9.3h11.2v2.3h-13.6L189,90.5z"/>
		<path class="st0" d="M205.6,114.3l3.4-23.8h0.4l9.7,19.5l9.6-19.5h0.4l3.4,23.8h-2.3l-2.4-17l-8.4,17h-0.6l-8.5-17.2l-2.3,17.2
			L205.6,114.3z"/>
		<path class="st0" d="M237.2,90.5h4.8c1.8-0.1,3.7,0.1,5.5,0.3c1.3,0.3,2.5,1,3.3,2.1c1.7,2.3,1.7,5.5,0,7.8
			c-0.9,1.1-2.1,1.8-3.5,2.1c-2,0.3-4,0.4-6.1,0.4h-1.7v11.1h-2.4L237.2,90.5z M239.6,92.8v8.1h4c1.2,0.1,2.4-0.1,3.6-0.4
			c0.7-0.3,1.4-0.8,1.8-1.4c0.8-1.3,0.8-3.1,0-4.4c-0.4-0.6-1-1.1-1.7-1.4c-1.1-0.3-2.3-0.5-3.5-0.4L239.6,92.8z"/>
		<path class="st0" d="M257,90.5h4.7c1.8-0.1,3.6,0,5.4,0.3c1.3,0.3,2.6,1,3.4,2.1c0.9,1.1,1.4,2.5,1.3,3.9c0,1.2-0.3,2.4-0.9,3.4
			s-1.5,1.8-2.6,2.2c-1.5,0.6-3.1,0.8-4.7,0.8l8.6,11.1h-2.9l-8.6-11.1h-1.3v11.1H257L257,90.5z M259.4,92.8v8.1h4.1
			c1.2,0.1,2.4-0.1,3.5-0.4c0.7-0.3,1.4-0.8,1.8-1.5s0.7-1.4,0.7-2.2c0-0.8-0.2-1.5-0.7-2.2c-0.4-0.6-1-1.1-1.7-1.4
			c-1.1-0.3-2.3-0.4-3.5-0.3L259.4,92.8L259.4,92.8z"/>
		<path class="st0" d="M277,90.5h13.6v2.3h-11.3v7.6h11.2v2.3h-11.2v9.3h11.2v2.3H277L277,90.5z"/>
		<path class="st0" d="M326.1,94.2l-1.9,1.5c-1-1.3-2.3-2.3-3.7-3c-1.5-0.7-3.1-1.1-4.8-1c-1.9,0-3.7,0.5-5.3,1.4
			c-1.6,0.8-2.9,2.1-3.8,3.6c-0.9,1.6-1.4,3.4-1.3,5.2c-0.1,2.7,1,5.4,3,7.3c2,2,4.8,3,7.6,2.9c3.2,0,6.3-1.4,8.4-3.9l1.9,1.4
			c-1.2,1.5-2.7,2.7-4.5,3.5c-1.9,0.8-3.9,1.3-5.9,1.2c-3.8,0.2-7.4-1.4-9.9-4.2c-2-2.4-3.1-5.4-3-8.5c-0.1-3.3,1.3-6.5,3.7-8.8
			c2.4-2.4,5.8-3.7,9.2-3.6c2.1,0,4.2,0.4,6.1,1.3C323.5,91.4,325,92.7,326.1,94.2z"/>
		<path class="st0" d="M342.2,89.3c3.4-0.1,6.7,1.2,9.1,3.6c4.9,4.9,4.9,12.8,0,17.7c-2.4,2.4-5.6,3.7-8.9,3.7
			c-3.4,0.1-6.6-1.2-9-3.6c-2.4-2.3-3.7-5.5-3.6-8.8c0-2.2,0.6-4.4,1.7-6.4C333.7,91.6,337.8,89.3,342.2,89.3L342.2,89.3z
			 M342.4,91.6c-3.6,0-6.9,2-8.7,5.1c-0.9,1.6-1.4,3.4-1.3,5.2c0,5.5,4.4,10,9.9,10.1h0.1c1.8,0,3.6-0.5,5.1-1.3
			c1.5-0.9,2.8-2.1,3.7-3.7c0.9-1.6,1.3-3.4,1.3-5.2C352.5,96.2,348,91.6,342.4,91.6L342.4,91.6L342.4,91.6z"/>
		<path class="st0" d="M359.7,114.3V90.5h0.5l15.8,18.3V90.5h2.3v23.8h-0.5l-15.7-18v18C362.1,114.3,359.7,114.3,359.7,114.3z"/>
		<path class="st0" d="M384.3,90.5h13.6v2.3h-11.3v7.6h11.2v2.3h-11.2v9.3h11.2v2.3h-13.6L384.3,90.5z"/>
		<path class="st0" d="M424.2,94.2l-1.9,1.5c-1-1.3-2.3-2.3-3.7-3c-1.5-0.7-3.1-1.1-4.8-1c-1.9,0-3.7,0.5-5.3,1.4
			c-1.5,0.8-2.8,2.1-3.7,3.6c-0.9,1.6-1.4,3.4-1.3,5.2c-0.1,2.7,1,5.4,3,7.3c2,2,4.8,3,7.6,2.9c3.2,0,6.3-1.4,8.4-3.9l1.9,1.4
			c-1.2,1.5-2.7,2.7-4.4,3.5c-1.9,0.9-3.9,1.3-6,1.2c-3.7,0.2-7.4-1.4-9.9-4.2c-2-2.4-3.1-5.4-3-8.5c-0.1-3.3,1.3-6.5,3.7-8.8
			c2.5-2.4,5.8-3.7,9.2-3.6c2.1,0,4.2,0.4,6.1,1.3C421.6,91.4,423.1,92.7,424.2,94.2z"/>
		<path class="st0" d="M426.6,92.8v-2.3h13.1v2.3h-5.3v21.5H432V92.8H426.6z"/>
		<path class="st0" d="M452.9,90.5l11.1,23.8h-2.6l-3.8-7.9h-10.3l-3.7,7.8h-2.7l11.2-23.8L452.9,90.5z M452.6,95.5l-4.1,8.6h8.1
			L452.6,95.5z"/>
		<path class="st0" d="M467.7,114.3V90.5h5c2.6-0.1,5.2,0.2,7.8,0.9c2.2,0.7,4.1,2.2,5.4,4.2c1.3,2.1,2,4.6,2,7.2
			c0.1,2.2-0.5,4.4-1.5,6.3c-0.9,1.7-2.3,3.1-4,4c-2.2,1-4.5,1.4-6.9,1.3L467.7,114.3z M470,112h2.7c2.3,0.1,4.6-0.1,6.8-0.6
			c1.7-0.5,3.2-1.6,4.2-3.2c1.1-1.7,1.6-3.6,1.5-5.5c0.1-2.1-0.5-4.1-1.7-5.9c-1.1-1.6-2.8-2.8-4.7-3.3c-2.4-0.6-4.9-0.8-7.4-0.7
			h-1.7L470,112z"/>
		<path class="st0" d="M503.7,89.3c3.4-0.1,6.7,1.2,9.1,3.6c4.9,4.9,4.9,12.8,0,17.7c-2.4,2.4-5.6,3.7-8.9,3.7
			c-3.4,0.1-6.6-1.2-9-3.6c-2.4-2.3-3.7-5.5-3.7-8.8c0-2.2,0.6-4.4,1.7-6.4C495.2,91.6,499.3,89.3,503.7,89.3L503.7,89.3z
			 M503.8,91.6c-3.6,0-6.9,2-8.7,5.1c-0.9,1.6-1.4,3.4-1.3,5.2c0,5.5,4.4,10,9.9,10.1h0.1c1.8,0,3.6-0.5,5.1-1.3
			c1.5-0.9,2.8-2.1,3.7-3.7c0.9-1.6,1.4-3.4,1.3-5.2c0.1-3.6-1.9-7-5-8.8C507.4,92.1,505.6,91.6,503.8,91.6L503.8,91.6z"/>
		<path class="st0" d="M518.7,109.2l2-1.2c1.4,2.6,3,3.9,4.9,3.9c0.8,0,1.6-0.2,2.2-0.6c0.7-0.3,1.2-0.9,1.6-1.5
			c0.4-0.6,0.5-1.3,0.5-2c0-0.8-0.3-1.7-0.8-2.3c-1.2-1.5-2.5-2.8-4.1-3.8c-1.4-0.9-2.6-2-3.7-3.2c-0.8-1-1.3-2.3-1.3-3.7
			c0-1,0.3-2,0.8-2.8c0.5-0.9,1.2-1.6,2.1-2c0.9-0.5,1.9-0.7,2.9-0.7c1.1,0,2.2,0.3,3.2,0.8c1.2,0.8,2.3,1.8,3.1,3l-2,1.5
			c-0.6-0.9-1.4-1.7-2.3-2.3c-0.6-0.4-1.3-0.6-2.1-0.6c-0.9,0-1.7,0.3-2.4,0.9c-0.6,0.6-0.9,1.3-0.9,2.2c0,0.5,0.1,1,0.3,1.5
			c0.3,0.6,0.7,1.1,1.2,1.6c0.3,0.3,1.3,1.1,3,2.4c1.6,1.1,3.1,2.5,4.2,4.1c0.7,1.1,1.1,2.3,1.2,3.6c0,1.7-0.7,3.4-2,4.5
			c-1.3,1.3-3,1.9-4.8,1.9c-1.4,0-2.8-0.4-3.9-1.2C520.6,112.1,519.5,110.8,518.7,109.2z"/>
	</g>
</g>
</svg>
